<svg width="748" height="818" viewBox="0 0 748 818" fill="none" xmlns="http://www.w3.org/2000/svg">
<g clip-path="url(#clip0_98_836)">
<path d="M748 0H0V818H748V0Z" fill="#0D2833"/>
<path d="M447.778 70.5527C446.406 69.7992 445.141 69.0996 444.065 68.5077C432.441 63.1799 431.93 80.0781 424.961 83.4146C418.8 83.9528 412.638 84.5179 405.562 83.1187C409.248 90.895 413.876 100.609 417.347 107.901C417.804 108.87 418.261 109.838 418.746 110.807C433.813 142.451 456.388 189.943 456.388 189.943L463.357 186.633C463.357 186.633 438.199 138.226 432.952 127.248C425.553 111.722 458.083 108.143 458.083 108.143L491.259 173.341L505.196 166.695L463.599 79.2977L447.751 70.5527H447.778Z" fill="#FF5D31"/>
<path d="M378.52 81.4234C374.054 80.5893 372.386 79.2977 373.462 78.1944C369.318 76.1764 367.946 74.3735 366.735 71.1177C365.39 72.5976 364.206 72.6245 360.897 73.3241C362.242 75.9342 362.269 77.5218 360.789 80.2395C363.695 80.4816 365.067 81.8808 367.085 85.7825C368.726 83.5491 371.014 83.8182 375.803 85.1098C374.727 81.8539 375.991 80.4816 378.547 81.4234H378.52Z" fill="#FF5D31"/>
<path d="M395.014 123.857L380.78 94.9043L375.91 97.2184C375.91 97.2184 386.538 119.579 398.081 143.823C398.216 144.119 398.35 144.388 398.485 144.684C399.938 147.724 406.072 147.159 403.005 154.155C403.166 154.559 403.355 154.936 403.543 155.339C406.853 162.309 410.081 169.062 413.31 175.87C413.498 176.247 413.66 176.624 413.848 177C417.373 179.906 420.037 181.01 418.288 186.149C418.422 186.553 418.611 186.956 418.772 187.333C419.579 189.001 420.306 190.589 421.005 192.042L426.71 204.016L435.427 199.872L429.373 187.118C428.97 186.257 428.539 185.396 428.082 184.481C427.194 183.404 426.36 182.355 425.553 181.279C425.284 180.929 425.014 180.579 424.745 180.202C423.535 179.287 422.62 177.35 421.059 174.875C420.844 174.525 420.602 174.148 420.387 173.798C415.947 166.641 412.88 159.241 410.808 150.846C410.7 150.415 410.593 150.012 410.512 149.581C410.512 147.402 408.655 143.5 407.74 141.563L407.31 140.648L396.655 118.26L395.014 123.803V123.857Z" fill="#FF5D31"/>
<path d="M162.112 223.443C155.789 215.505 147.232 213.81 139.833 207.783C136.228 199.199 144.353 193.629 143.627 184.857C143.492 183.27 142.389 181.924 141.636 180.229C139.376 175.197 140.506 177.834 137.062 170.515C133.618 163.196 123.662 142.37 119.626 133.867C118.469 131.445 118.093 130.611 118.039 130.503C118.173 130.772 119.599 133.786 117.124 128.566C113.357 120.628 107.384 108.089 103.16 99.2095C98.9084 100.743 94.9532 102.95 90.8634 104.779C89.6257 102.95 89.5719 100.636 87.4732 99.2633C72.6477 106.313 44.0461 119.929 32.4763 125.445C20.9065 130.961 26.1264 128.458 17.9199 132.36C53.5172 205.146 87.8768 278.524 122.532 351.74C128.694 348.807 127.214 349.507 135.313 345.659C143.412 341.811 161.278 333.308 171.233 328.572C169.753 323.729 167.116 319.424 165.125 314.822C176.076 309.414 187.35 304.597 198.086 298.731C194.991 292.247 188.534 278.631 186.22 273.788L184.848 270.909C184.848 270.882 184.767 270.747 184.471 270.155C183.502 268.11 183.745 268.648 182.803 266.63C178.309 257.159 173.386 246.934 168.758 237.382C168.273 236.413 167.924 235.363 167.574 234.664C166.551 232.511 165.125 229.39 164.264 227.695C163.376 225.999 162.946 224.412 162.166 223.443H162.112ZM54.1898 179.826C50.9073 169.305 51.7414 162.927 60.9703 157.573C74.558 149.716 91.267 143.365 105.474 135.966C105.205 141.536 103.375 147.778 103.24 153.133C103.079 160.425 104.935 164.031 110.801 168.228C114.729 171.054 120.272 173.099 124.496 175.762C125.115 177.646 124.739 178.857 123.286 179.906C122.855 180.229 122.048 180.417 121.617 180.74C120.165 181.817 119.815 183.001 120.38 184.911C120.568 185.503 121.026 186.23 121.268 186.795C121.51 187.36 121.779 187.79 121.994 188.328C122.478 189.674 122.344 190.669 121.644 191.773L108.003 199.092C107.115 199.414 106.577 199.845 105.608 200.222C99.1775 202.751 91.8858 207.594 85.4821 209.505C75.8765 212.384 69.7687 209.935 64.0376 200.545C60.4591 194.679 56.2078 186.337 54.1629 179.799L54.1898 179.826ZM151.78 228.448C152.049 229.04 152.829 230.655 153.286 231.596C153.744 232.538 154.416 233.991 154.874 235.041C157.026 250.459 161.035 261.249 172.471 272.066C172.794 273.976 173.009 275.214 171.179 276.183C165.663 279.062 159.475 281.672 153.959 284.524C152.129 285.466 152.264 286.811 152.614 288.668C152.937 290.525 153.071 292.031 151.268 292.812C144.434 295.718 136.658 300.723 129.824 302.795C120.165 305.728 114.057 303.387 108.272 293.807C104.021 286.784 99.3389 276.936 96.5675 269.187C92.8006 258.666 94.8186 252.504 103.24 246.907C109.563 242.709 118.954 239.803 125.761 235.982C126.784 235.417 127.591 235.148 128.371 234.771C130.577 233.668 132.837 232.646 134.936 231.623C135.959 231.112 137.358 230.466 138.084 230.116C139.51 229.417 139.941 229.228 141.286 228.583C142.631 227.937 144.138 227.21 145.618 226.511C146.345 226.161 147.744 225.488 148.443 225.165C149.143 224.842 149.331 224.762 149.923 224.439C150.596 225.946 151.026 226.78 151.833 228.475L151.78 228.448Z" fill="#FF5D31"/>
<path d="M224.481 169.95C219.799 172.022 215.171 174.255 210.597 176.543C217.001 183.054 224.319 192.849 228.194 200.383C232.876 209.451 234.759 216.097 237.746 224.842C240.409 232.646 242.347 240.018 244.472 247.902C236.858 251.454 229.405 255.114 221.763 258.639C216.113 254.387 209.575 248.387 205.754 242.709C197.628 230.681 193.996 218.519 187.942 205.496C186.489 202.401 184.175 197.396 182.48 194.033C179.574 193.925 176.749 193.979 173.87 193.925C180.516 207.917 187 221.533 193.754 235.686C194.076 236.359 194.668 237.597 195.26 238.834C198.112 244.835 201.395 251.669 204.355 257.697C204.866 258.719 205.404 260.172 205.7 260.791C211.404 272.846 216.947 284.443 222.597 296.337C226.068 294.668 229.539 293.027 233.01 291.386C234.006 293.511 235.028 295.637 236.024 297.736C245.602 293.161 255.181 288.614 264.787 284.04C263.791 281.914 262.769 279.815 261.773 277.689C265.567 275.887 269.361 274.057 273.181 272.281C263.468 251.885 254.024 232 244.176 211.361C243.8 210.608 243.53 210.043 242.616 208.159C237.907 198.392 232.956 187.898 227.898 177.215C227.467 176.3 225.153 171.43 224.454 169.95H224.481Z" fill="#FF5D31"/>
<path d="M267.289 165.564C274.85 161.959 282.384 158.38 289.971 154.774C288.733 152.541 288.034 150.281 286.662 148.02C284.348 144.199 280.366 142.881 276.572 144.522C271.164 146.863 260.159 152.326 256.419 154.048C252.679 155.77 257.791 153.402 255.235 154.586C252.679 155.77 248.185 157.949 245.172 159.375C262.661 196.32 280.285 233.184 297.828 270.101C303.64 267.357 309.451 264.558 315.263 261.814C300.169 247.983 288.303 233.48 278.105 215.021C273.155 206.034 269.172 195.19 265.971 185.234C266.428 178.615 266.858 172.103 267.289 165.51V165.564Z" fill="#FF5D31"/>
<path d="M343.111 120.359C342.035 119.794 340.528 118.664 339.425 118.368C327.99 115.462 327.586 127.355 320.295 133.167C313.783 133.732 307.487 133.947 300.895 132.871C304.796 141.078 308.779 149.473 312.653 157.599C313.164 158.676 313.649 159.698 314.052 160.505C326.645 186.983 339.156 213.272 351.721 239.695L358.287 235.901C351.425 220.026 334.098 192.311 329.389 178.238C322.743 158.326 344.483 161.824 353.255 157.707C364.663 179.825 375.426 201.244 386.592 223.093C391.22 220.86 395.902 218.653 400.53 216.447C386.673 187.306 372.789 158.191 358.932 129.05C353.605 126.171 348.412 123.184 343.057 120.332L343.111 120.359Z" fill="#FF5D31"/>
<path d="M529.385 24.1631L515.447 30.8094L468.361 53.2237L472.262 61.4306L472.989 62.9374C477.617 72.6512 483.159 84.3023 487.733 93.9084C488.245 94.9847 488.944 96.4377 489.617 97.9177L492.388 103.757L499.734 100.259L502.048 99.1554L506.245 97.1643C507.698 96.4916 509.07 95.8189 510.039 95.2807C518.514 91.3252 514.613 74.1311 525.187 73.862C534.927 76.3645 542.111 82.4725 545.098 92.4285C545.663 93.8008 546.228 95.2 546.793 96.5454C547.358 97.8908 547.923 99.2362 548.515 100.474L549.78 103.111L551.017 105.721C551.448 106.663 551.932 107.82 552.39 108.762C560.596 121.328 566.139 132.979 570.39 146.54C570.901 147.563 571.359 148.451 571.682 149.15L572.704 151.303L570.363 152.406C569.637 152.756 568.749 153.186 567.753 153.644C552.497 153.778 539.367 157.626 532.452 171.807C531.457 172.668 530.488 173.475 529.465 174.228C521.393 180.283 512.461 183.754 501.321 185.234C500.245 185.745 499.276 186.229 498.388 186.633C495.779 187.871 494.218 188.624 494.218 188.624L488.675 176.973L481.706 180.283L487.249 191.934L489.106 195.809L494.648 207.46L545.717 180.148C552.901 172.587 563.475 172.318 571.951 168.174C573.404 167.582 574.668 166.99 575.718 166.479L579.162 164.838L584.92 140.97L584.22 139.49C574.83 128.754 569.287 117.103 566.892 103.219C566.435 102.169 566.004 101.2 565.547 100.286C560.246 89.1726 554.515 77.1179 549.188 65.9242C548.677 64.8479 548.165 63.7716 547.654 62.6952C545.017 57.1791 543.188 53.2775 540.524 47.7075C540.093 46.7927 539.663 45.8778 539.232 44.9898L529.304 24.1362L529.385 24.1631ZM522.82 53.7618C523.035 54.596 523.196 55.1341 523.196 55.1341C519.51 56.2104 516.631 58.1747 514.183 60.5426C513.375 61.3229 512.595 62.184 511.869 63.045C511.142 63.9061 510.443 64.821 509.797 65.7358C509.124 66.6507 508.505 67.5656 507.86 68.5073C506.595 70.364 505.411 72.1937 504.146 73.862C503.205 74.8038 502.29 75.7187 501.348 76.5528C497.581 79.8356 493.653 81.6922 489.186 79.0552C482.917 74.8845 477.374 63.2334 479.016 57.6904C478.908 52.9815 488.568 50.775 494.675 47.869C495.536 47.4654 496.424 47.0618 497.285 46.6581C498.146 46.2276 499.034 45.824 499.895 45.3935C506.003 42.4605 512.057 37.2135 519.133 38.6127C521.797 39.7159 523.761 48.3264 522.846 53.7887L522.82 53.7618Z" fill="#FF5D31"/>
<path d="M352.986 366.781C351.963 366.216 351.022 365.705 350.214 365.248C341.577 361.292 341.201 373.858 336.008 376.334C331.434 376.737 326.86 377.141 321.586 376.118C324.33 381.904 327.774 389.115 330.357 394.55C330.707 395.25 331.03 395.976 331.38 396.73C342.573 420.274 359.39 455.604 359.39 455.604L364.582 453.129C364.582 453.129 345.856 417.126 341.981 408.946C336.492 397.376 360.681 394.739 360.681 394.739L385.354 443.254L395.74 438.302L364.798 373.293L353.013 366.781H352.986Z" fill="#FF5D31"/>
<path d="M301.487 374.881C298.177 374.262 296.913 373.293 297.72 372.486C294.626 370.979 293.603 369.634 292.715 367.212C291.72 368.315 290.832 368.315 288.357 368.853C289.352 370.791 289.379 371.975 288.276 373.993C290.428 374.181 291.451 375.204 292.958 378.11C294.195 376.441 295.89 376.657 299.442 377.625C298.635 375.204 299.577 374.181 301.487 374.881Z" fill="#FF5D31"/>
<path d="M313.756 406.444L303.182 384.891L299.55 386.613C299.55 386.613 307.46 403.242 316.043 421.27C316.151 421.485 316.259 421.701 316.339 421.916C317.416 424.176 321.99 423.773 319.703 428.966C319.837 429.262 319.972 429.558 320.106 429.827C322.582 435.02 324.976 440.025 327.371 445.111C327.506 445.38 327.64 445.676 327.775 445.945C330.385 448.097 332.376 448.931 331.057 452.752C331.165 453.048 331.299 453.344 331.434 453.64C332.026 454.878 332.591 456.062 333.102 457.138L337.353 466.045L343.838 462.95L339.318 453.479C339.022 452.86 338.699 452.187 338.349 451.515C337.703 450.707 337.057 449.927 336.465 449.147C336.277 448.878 336.062 448.609 335.874 448.366C334.986 447.694 334.286 446.241 333.129 444.411C332.968 444.142 332.779 443.873 332.618 443.604C329.335 438.276 327.048 432.787 325.488 426.517C325.407 426.194 325.326 425.898 325.272 425.575C325.272 423.961 323.9 421.055 323.201 419.629L322.878 418.956L314.94 402.3L313.73 406.417L313.756 406.444Z" fill="#FF5D31"/>
<path d="M140.506 480.521C135.797 474.602 129.447 473.364 123.931 468.87C121.241 462.466 127.295 458.349 126.756 451.811C126.649 450.627 125.842 449.631 125.277 448.366C123.608 444.626 124.442 446.591 121.859 441.128C119.276 435.666 111.877 420.194 108.891 413.871C108.03 412.068 107.734 411.449 107.707 411.368C107.814 411.583 108.864 413.817 107.034 409.942C104.236 404.049 99.7692 394.712 96.6481 388.093C93.4731 389.223 90.5403 390.891 87.4999 392.237C86.5851 390.864 86.5313 389.142 84.9707 388.12C73.939 393.367 52.656 403.484 44.0459 407.601C35.4359 411.718 39.3104 409.861 33.2026 412.767C59.6786 466.906 85.2398 521.502 111.043 575.964C115.617 573.784 114.514 574.322 120.541 571.443C126.568 568.564 139.86 562.268 147.259 558.716C146.156 555.11 144.192 551.908 142.712 548.491C150.865 544.481 159.233 540.903 167.224 536.517C164.937 531.7 160.12 521.556 158.398 517.95L157.376 515.825C157.376 515.825 157.322 515.69 157.107 515.26C156.38 513.753 156.569 514.129 155.869 512.649C152.506 505.6 148.874 498.012 145.403 490.881C145.053 490.154 144.784 489.401 144.515 488.863C143.734 487.248 142.712 484.934 142.039 483.67C141.394 482.405 141.044 481.248 140.479 480.495L140.506 480.521ZM60.2167 448.07C57.7682 440.24 58.3871 435.504 65.2482 431.522C75.3382 425.683 87.769 420.947 98.3432 415.431C98.1549 419.575 96.7826 424.203 96.675 428.212C96.5405 433.648 97.9396 436.312 102.298 439.433C105.231 441.532 109.348 443.039 112.496 445.03C112.953 446.429 112.684 447.317 111.608 448.124C111.285 448.366 110.693 448.501 110.37 448.743C109.294 449.55 109.025 450.411 109.456 451.864C109.59 452.295 109.94 452.86 110.101 453.264C110.263 453.694 110.478 453.99 110.639 454.421C110.989 455.416 110.909 456.17 110.37 456.977L100.227 462.439C99.554 462.681 99.1773 463.004 98.4508 463.273C93.6615 465.157 88.2264 468.763 83.4908 470.189C76.3606 472.315 71.8134 470.512 67.5353 463.516C64.8716 459.157 61.6966 452.941 60.1898 448.07H60.2167ZM132.81 484.262C133.026 484.692 133.591 485.903 133.914 486.603C134.236 487.302 134.748 488.378 135.097 489.159C136.685 500.648 139.672 508.667 148.174 516.713C148.416 518.139 148.578 519.054 147.205 519.753C143.089 521.879 138.515 523.843 134.398 525.942C133.026 526.642 133.133 527.637 133.375 529.036C133.618 530.409 133.725 531.539 132.353 532.104C127.268 534.283 121.483 537.97 116.397 539.53C109.213 541.71 104.666 539.961 100.361 532.857C97.2131 527.637 93.7153 520.291 91.6435 514.56C88.8452 506.73 90.3251 502.155 96.5943 497.985C101.303 494.863 108.299 492.684 113.357 489.858C114.11 489.428 114.702 489.24 115.294 488.944C116.936 488.109 118.631 487.356 120.164 486.603C120.945 486.226 121.967 485.742 122.505 485.499C123.581 484.988 123.877 484.827 124.873 484.369C125.869 483.885 126.999 483.347 128.102 482.835C128.64 482.566 129.689 482.082 130.2 481.84C130.712 481.598 130.873 481.544 131.304 481.302C131.815 482.405 132.138 483.051 132.73 484.288L132.81 484.262Z" fill="#FF5D31"/>
<path d="M186.892 440.752C183.421 442.285 179.95 443.954 176.56 445.649C181.323 450.492 186.758 457.784 189.664 463.381C193.161 470.135 194.534 475.086 196.767 481.571C198.758 487.383 200.184 492.845 201.771 498.711C196.121 501.348 190.551 504.093 184.874 506.703C180.677 503.528 175.807 499.061 172.955 494.863C166.928 485.93 164.21 476.862 159.69 467.175C158.614 464.861 156.865 461.148 155.627 458.645C153.474 458.565 151.376 458.591 149.223 458.565C154.174 468.951 158.99 479.122 164.022 489.643C164.264 490.154 164.721 491.069 165.152 491.984C167.277 496.451 169.726 501.536 171.932 506.03C172.309 506.784 172.712 507.86 172.928 508.344C177.179 517.304 181.296 525.942 185.493 534.768C188.076 533.53 190.659 532.319 193.242 531.081C193.996 532.669 194.749 534.23 195.502 535.817C202.633 532.427 209.763 529.036 216.893 525.646C216.14 524.058 215.386 522.498 214.633 520.91C217.458 519.565 220.283 518.219 223.108 516.874C215.897 501.698 208.848 486.899 201.529 471.561C201.26 470.996 201.045 470.592 200.372 469.166C196.875 461.901 193.188 454.098 189.421 446.133C189.099 445.434 187.377 441.828 186.865 440.725L186.892 440.752Z" fill="#FF5D31"/>
<path d="M218.749 437.469C224.373 434.805 229.969 432.114 235.62 429.45C234.705 427.782 234.167 426.114 233.144 424.445C231.422 421.593 228.463 420.624 225.638 421.862C221.602 423.611 213.422 427.674 210.651 428.966C207.879 430.257 211.673 428.481 209.763 429.369C207.879 430.257 204.516 431.872 202.283 432.921C215.305 460.394 228.409 487.84 241.459 515.286C245.79 513.241 250.096 511.143 254.427 509.124C243.207 498.846 234.382 488.029 226.795 474.306C223.108 467.632 220.149 459.56 217.781 452.16C218.104 447.236 218.427 442.393 218.776 437.496L218.749 437.469Z" fill="#FF5D31"/>
<path d="M275.145 403.834C274.338 403.403 273.235 402.569 272.401 402.354C263.899 400.174 263.576 409.054 258.167 413.359C253.324 413.789 248.643 413.924 243.746 413.144C246.652 419.252 249.611 425.494 252.49 431.549C252.867 432.329 253.217 433.109 253.513 433.728C262.876 453.425 272.186 472.987 281.549 492.63L286.446 489.804C281.334 477.992 268.446 457.38 264.948 446.913C259.997 432.087 276.168 434.697 282.706 431.629C291.182 448.097 299.2 464.027 307.487 480.279C310.931 478.611 314.402 476.996 317.873 475.328C307.568 453.64 297.236 431.979 286.931 410.291C282.975 408.166 279.101 405.932 275.119 403.807L275.145 403.834Z" fill="#FF5D31"/>
<path d="M413.687 332.286L403.301 337.237L368.269 353.893L371.175 360.001L371.713 361.131C375.157 368.342 379.274 377.034 382.691 384.164C383.068 384.971 383.579 386.048 384.09 387.151L386.162 391.483L391.624 388.873L393.346 388.039L396.467 386.559C397.543 386.048 398.566 385.563 399.292 385.16C405.588 382.227 402.682 369.419 410.566 369.23C417.831 371.087 423.158 375.634 425.392 383.034C425.822 384.056 426.226 385.079 426.656 386.101C427.087 387.097 427.49 388.093 427.948 389.008L428.889 390.972L429.804 392.909C430.127 393.609 430.504 394.47 430.827 395.169C436.934 404.506 441.051 413.198 444.226 423.288C444.603 424.042 444.926 424.714 445.168 425.226L445.921 426.813L444.172 427.647C443.634 427.916 442.961 428.212 442.235 428.562C430.88 428.643 421.113 431.522 415.974 442.07C415.248 442.716 414.494 443.308 413.741 443.873C407.741 448.366 401.095 450.949 392.808 452.053C392.001 452.429 391.274 452.779 390.628 453.102C388.691 454.017 387.534 454.582 387.534 454.582L383.417 445.918L378.224 448.393L382.341 457.058L383.713 459.937L387.83 468.601L425.822 448.286C431.176 442.662 439.033 442.447 445.356 439.379C446.432 438.922 447.374 438.491 448.154 438.114L450.71 436.904L454.989 419.144L454.477 418.041C447.509 410.049 443.365 401.385 441.589 391.053C441.266 390.272 440.917 389.546 440.594 388.873C436.665 380.612 432.387 371.625 428.432 363.31C428.055 362.503 427.679 361.696 427.302 360.916C425.338 356.799 423.965 353.92 422.001 349.776C421.678 349.103 421.356 348.43 421.033 347.758L413.66 332.259L413.687 332.286ZM408.817 354.296C408.979 354.915 409.086 355.319 409.086 355.319C406.342 356.126 404.189 357.579 402.386 359.355C401.768 359.947 401.203 360.566 400.664 361.212C400.126 361.857 399.615 362.53 399.104 363.203C398.62 363.876 398.135 364.575 397.678 365.248C396.736 366.62 395.848 367.992 394.906 369.23C394.207 369.93 393.507 370.603 392.808 371.221C390.01 373.67 387.077 375.042 383.767 373.078C379.112 369.984 374.996 361.319 376.206 357.176C376.126 353.677 383.31 352.036 387.857 349.883C388.503 349.587 389.148 349.265 389.794 348.969C390.44 348.646 391.086 348.35 391.731 348.027C396.279 345.847 400.772 341.946 406.046 342.968C408.037 343.802 409.49 350.179 408.817 354.269V354.296Z" fill="#FF5D31"/>
<path d="M562.399 338.205C560.785 338.367 559.278 338.501 557.987 338.636C544.802 340.923 554.354 355.803 550.318 362.799C545.34 366.916 540.336 371.033 533.421 374.02C541.197 378.54 550.937 384.191 558.256 388.415C559.224 388.98 560.193 389.546 561.188 390.111C592.911 408.516 640.482 436.123 640.482 436.123L644.545 429.127C644.545 429.127 594.203 402.246 583.198 395.869C567.619 386.828 593.584 364.521 593.584 364.521L660.769 401.17L668.868 387.178L581.288 336.349C581.288 336.349 570.525 337.398 562.426 338.178L562.399 338.205Z" fill="#FF5D31"/>
<path d="M509.071 388.55C504.739 390.461 502.505 390.353 502.801 388.765C498.039 389.465 495.779 388.712 492.819 386.64C492.523 388.712 491.528 389.438 489.079 391.994C491.797 393.447 492.738 394.793 493.061 398.022C495.698 396.515 497.716 396.892 501.752 399.098C501.86 396.192 503.985 395.089 508.882 393.367C506.03 391.187 506.299 389.25 509.071 388.577V388.55Z" fill="#FF5D31"/>
<path d="M548.408 415.431L518.999 398.855L516.174 403.726L562.883 430.822C563.179 430.984 563.475 431.145 563.744 431.333C566.785 433.109 571.763 428.992 573.242 436.823C573.619 437.065 574.023 437.28 574.399 437.522C581.395 441.585 588.149 445.514 594.983 449.469C595.36 449.684 595.736 449.9 596.113 450.142C600.875 450.572 603.835 449.954 605.342 455.416C605.692 455.685 606.095 455.927 606.472 456.142C608.14 457.111 609.728 458.026 611.208 458.887C618.553 463.165 623.208 465.856 623.208 465.856L628.266 457.111L615.486 449.711C614.625 449.227 613.737 448.716 612.822 448.205C611.423 447.801 610.077 447.397 608.732 446.94C608.302 446.805 607.844 446.644 607.414 446.509C605.826 446.456 603.889 445.325 601.091 444.088C600.687 443.926 600.283 443.738 599.88 443.549C591.835 439.998 584.812 435.423 578.032 429.396C577.682 429.1 577.359 428.777 577.009 428.481C575.718 426.598 571.816 424.337 569.879 423.207L568.964 422.669L546.524 409.646L548.381 415.404L548.408 415.431Z" fill="#FF5D31"/>
<path d="M406.341 639.116C396.198 635.995 387.803 639.601 377.847 638.793C369.668 633.52 373.381 623.913 367.569 616.783C366.52 615.491 364.771 614.98 363.13 613.984C358.206 610.971 360.735 612.585 353.443 608.307C346.152 604.029 325.218 591.947 316.743 586.996C314.321 585.597 313.487 585.112 313.38 585.032C313.649 585.193 316.662 586.942 311.442 583.901C303.478 579.273 290.913 571.981 282.033 566.842C279.262 570.663 277.163 574.914 274.715 578.923C272.562 578.062 271.136 576.125 268.526 576.152C259.916 591.005 243.288 619.662 236.535 631.286C229.781 642.91 232.848 637.663 228.059 645.87C301.837 687.604 374.861 730.603 448.1 773.306C451.679 767.144 450.818 768.624 455.526 760.498C460.235 752.372 470.621 734.478 476.433 724.495C472.289 721.185 467.473 719.033 463.033 716.234C469.303 705.095 476.164 694.278 481.949 682.842C475.437 679.075 461.796 671.164 456.952 668.338L454.073 666.67C454.047 666.67 453.912 666.562 453.32 666.213C451.275 665.029 451.813 665.325 449.795 664.168C440.297 658.652 430.019 652.732 420.36 647.243C419.364 646.677 418.449 646.005 417.723 645.601C415.543 644.337 412.503 642.507 410.727 641.538C408.951 640.596 407.66 639.493 406.395 639.116H406.341ZM287.415 665.325C278.374 658.194 275.307 652.194 280.096 642.103C287.173 627.277 297.828 611.939 305.711 597.113C308.779 602.064 310.877 608.549 313.945 613.258C318.115 619.662 321.855 621.653 329.416 621.815C334.474 621.922 340.474 620.389 345.694 620.2C347.335 621.465 347.739 622.729 347.093 624.505C346.905 625.044 346.313 625.662 346.152 626.227C345.533 628.03 345.909 629.241 347.551 630.56C348.035 630.963 348.896 631.313 349.434 631.663C349.972 632.013 350.457 632.201 350.968 632.578C352.152 633.439 352.663 634.381 352.717 635.753L345.291 650.149C344.699 650.956 344.51 651.655 343.891 652.543C339.829 658.517 336.411 667.047 332.026 672.455C325.434 680.608 318.734 682.142 308.213 677.406C301.675 674.473 293.065 669.791 287.415 665.352V665.325ZM400.368 649.557C400.96 649.906 402.574 650.848 403.516 651.386C404.458 651.951 405.911 652.786 406.933 653.404C417.911 665.459 427.732 672.375 444.01 674.958C445.41 676.411 446.324 677.353 445.329 679.263C442.262 684.994 438.495 690.914 435.4 696.645C434.378 698.529 435.293 699.632 436.692 701.031C438.064 702.431 439.087 703.668 437.957 705.417C433.786 711.983 430.019 720.863 425.364 726.702C418.772 734.962 412.099 736.523 401.471 731.706C393.642 728.155 383.767 722.423 376.825 717.391C367.354 710.557 365.444 704.018 369.399 694.224C372.358 686.878 378.762 678.779 382.368 671.46C382.906 670.383 383.444 669.684 383.901 668.85C385.166 666.589 386.511 664.383 387.695 662.257C388.287 661.208 389.094 659.835 389.525 659.109C390.359 657.656 390.601 657.252 391.381 655.907C392.162 654.562 393.05 653.028 393.884 651.548C394.314 650.821 395.121 649.422 395.525 648.723C395.929 648.023 396.063 647.835 396.359 647.216C397.839 648.104 398.7 648.588 400.368 649.557Z" fill="#FF5D31"/>
<path d="M428.512 556.079C425.687 560.626 423.024 565.308 420.44 569.963C429.831 571.793 441.912 575.937 449.742 580.134C459.159 585.193 464.702 589.821 472.451 595.606C479.366 600.746 485.393 605.966 491.877 611.509C487.411 619.07 483.133 626.658 478.639 634.219C471.267 633.896 462.065 632.578 455.392 629.941C441.266 624.371 430.934 616.029 418.019 608.361C414.952 606.531 409.974 603.625 406.53 601.688C403.974 603.302 401.552 605.024 399.023 606.666C413.041 614.792 426.71 622.73 440.889 630.963C441.562 631.367 442.827 632.067 444.037 632.793C450.038 636.291 456.926 640.247 463.06 643.691C464.11 644.283 465.428 645.198 466.047 645.574C478.101 652.597 489.725 659.324 501.644 666.24C503.662 662.769 505.68 659.27 507.698 655.799C509.824 657.037 511.949 658.275 514.075 659.486C519.645 649.88 525.214 640.273 530.784 630.667C528.658 629.43 526.533 628.192 524.407 626.981C526.613 623.187 528.82 619.366 531.053 615.545C510.631 603.706 490.693 592.108 470.002 580.134C469.249 579.677 468.684 579.381 466.773 578.278C456.953 572.627 446.432 566.519 435.75 560.276C434.835 559.738 429.965 556.913 428.486 556.052L428.512 556.079Z" fill="#FF5D31"/>
<path d="M462.872 526.964C467.285 519.376 471.644 511.815 476.056 504.227C473.662 503.016 471.724 501.51 469.195 500.379C464.917 498.442 460.747 499.68 458.433 503.339C455.15 508.559 448.881 519.78 446.675 523.493C444.468 527.18 447.482 522.121 445.975 524.677C444.468 527.207 441.885 531.754 440.109 534.768C477.052 556.294 514.075 577.686 551.045 599.158C554.435 593.346 557.798 587.48 561.189 581.695C539.986 578.708 521.179 573.165 501.456 563.29C491.877 558.474 482.003 551.451 473.366 544.777C469.814 538.804 466.37 532.911 462.845 526.964H462.872Z" fill="#FF5D31"/>
<path d="M501.564 443.092C500.299 443.227 498.335 443.146 497.232 443.55C485.635 447.801 492.335 458.322 489.483 467.632C484.209 471.964 478.908 475.866 472.585 478.853C480.819 483.615 489.214 488.513 497.366 493.221C498.443 493.84 499.465 494.432 500.299 494.917C526.829 510.308 553.17 525.592 579.646 540.956L583.063 533.799C567.754 524.166 536.408 510.496 524.031 501.132C506.514 487.867 527.34 478.045 532.479 469.3C555.404 481.651 577.359 493.76 599.907 506.003C602.598 501.348 605.315 496.693 608.006 492.011C578.812 475.059 549.619 458.134 520.425 441.182C514.129 441.854 507.86 442.339 501.564 443.065V443.092Z" fill="#FF5D31"/>
<path d="M605.396 249.947L597.297 263.939L569.933 311.136L578.14 315.899L579.673 316.786C589.413 322.437 601.091 329.218 610.696 334.788C611.773 335.434 613.226 336.268 614.705 337.129L620.544 340.519L624.822 333.146L626.168 330.805L628.616 326.581C629.45 325.128 630.257 323.756 630.769 322.706C635.746 314.284 622.212 301.745 631.172 295.287C641.074 291.681 650.868 292.704 659.343 299.539C660.662 300.373 661.953 301.261 663.245 302.095C664.536 302.929 665.801 303.736 667.065 304.463L669.702 305.996L672.312 307.503C673.227 308.068 674.357 308.768 675.299 309.333C689.801 315.333 701.479 322.114 713.183 331.29C714.232 331.882 715.147 332.366 715.82 332.77L717.972 334.008L716.6 336.349C716.17 337.075 715.659 337.963 715.093 338.959C701.99 348.08 692.949 359.193 695.371 375.526C695.048 376.845 694.645 378.136 694.214 379.374C690.824 389.357 685.173 397.645 676.429 405.529C675.81 406.605 675.245 407.601 674.734 408.462C673.227 411.072 672.312 412.632 672.312 412.632L660.635 405.852L656.572 412.848L668.249 419.628L672.151 421.889C676.51 424.418 682.994 428.185 683.828 428.669L711.73 374.908C713.452 364.117 722.439 357.633 727.309 349.076C728.197 347.704 728.95 346.439 729.569 345.39L731.56 341.945L722.412 317.944L720.932 317.082C706.483 313.369 694.806 306.588 684.528 296.04C683.532 295.422 682.564 294.83 681.622 294.291C670.483 287.834 658.402 280.811 647.208 274.326C646.132 273.707 645.056 273.061 643.98 272.442C638.437 269.24 634.562 266.98 628.966 263.724C628.051 263.186 627.136 262.675 626.248 262.137C613.844 254.952 605.369 250.028 605.369 250.028L605.396 249.947ZM617.235 279.331C617.907 279.923 618.365 280.299 618.365 280.299C615.836 283.394 614.49 286.811 613.791 290.309C613.548 291.466 613.387 292.65 613.279 293.834C613.172 295.018 613.118 296.202 613.064 297.386C613.037 298.57 613.037 299.754 613.037 300.911C613.037 303.252 613.091 305.539 612.983 307.719C612.741 309.091 612.472 310.436 612.149 311.701C610.831 316.76 608.544 320.688 603.136 321.065C595.279 321.172 583.602 314.392 581.718 308.633C578.839 304.624 585.862 297.009 589.413 290.901C589.925 290.04 590.436 289.179 590.947 288.291C591.458 287.403 591.943 286.542 592.454 285.654C595.979 279.519 598.104 271.393 605.046 268.406C608.006 267.787 614.786 274.057 617.235 279.304V279.331Z" fill="#FF5D31"/>
</g>
<defs>
<clipPath id="clip0_98_836">
<rect width="748" height="818" fill="white"/>
</clipPath>
</defs>
</svg>
