<svg width="748" height="818" viewBox="0 0 748 818" fill="none" xmlns="http://www.w3.org/2000/svg">
<g clip-path="url(#clip0_98_834)">
<path d="M748 0H0V818H748V0Z" fill="#330D10"/>
<path d="M381.83 193.764C378.601 189.27 375.587 185.072 373.004 181.494C343.757 146.54 316.232 200.168 288.706 200.168C268.069 192.499 247.432 184.83 226.768 169.52C226.768 200.168 226.768 238.484 226.768 267.303C226.768 271.07 226.768 274.918 226.768 278.819V591.059H254.293C254.293 591.059 247.405 396.811 247.405 353.462C247.405 292.139 357.506 330.483 357.506 330.483L364.394 591.059H419.445V246.153C419.445 246.153 397.947 216.205 381.803 193.764H381.83Z" fill="#EAD6AD"/>
<path d="M579.727 106.286C577.763 103.542 575.933 100.985 574.345 98.8057C556.507 77.4678 539.69 110.215 522.9 110.215C510.308 105.533 497.689 100.851 485.097 91.5137C485.097 110.215 485.097 133.625 485.097 151.195C485.097 153.509 485.097 155.85 485.097 158.218V348.807H501.886C501.886 348.807 497.689 230.251 497.689 203.8C497.689 166.371 564.874 189.754 564.874 189.754L569.072 348.807H602.678V138.28C602.678 138.28 589.548 120.009 579.7 106.313L579.727 106.286Z" fill="#EAD6AD"/>
<path d="M186.193 582.206C184.847 580.349 183.61 578.6 182.533 577.121C170.399 562.617 158.99 584.87 147.555 584.87C138.999 581.695 130.416 578.52 121.859 572.143C121.859 584.87 121.859 600.746 121.859 612.693C121.859 614.253 121.859 615.841 121.859 617.482V747.017H133.268C133.268 747.017 130.416 666.428 130.416 648.453C130.416 623.025 176.076 638.928 176.076 638.928L178.928 747.017H201.772V603.948L186.166 582.206H186.193Z" fill="#EAD6AD"/>
<path d="M198.839 527.852C200.695 526.507 202.444 525.269 203.924 524.193C218.427 512.057 196.175 500.649 196.175 489.213C199.35 480.656 202.525 472.072 208.902 463.516C196.175 463.516 180.3 463.516 168.354 463.516C166.793 463.516 165.206 463.516 163.564 463.516H34.0366V474.925C34.0366 474.925 114.622 472.072 132.595 472.072C158.022 472.072 142.12 517.735 142.12 517.735L34.0366 520.587V543.432H177.098L198.839 527.826V527.852Z" fill="#EAD6AD"/>
<path d="M113.68 92.9669C110.855 91.1372 108.218 89.4151 105.958 87.9352C81.6073 74.5081 77.7866 111.103 62.127 117.184C48.7007 117.372 35.2474 117.588 20.126 113.417C26.9064 130.853 35.355 152.676 41.7319 169.036C42.566 171.188 43.4001 173.368 44.2611 175.601L113.222 353.274L128.882 347.193C128.882 347.193 82.0647 238.189 72.486 213.514C58.952 178.615 130.039 176.112 130.039 176.112L191.493 322.868L222.812 310.706L146.64 114.466C146.64 114.466 127.806 102.169 113.653 92.9669H113.68Z" fill="#EAD6AD"/>
<path d="M600.014 748.551C604.185 750.865 608.113 753.044 611.45 754.901C647.262 771.449 648.93 719.302 670.456 709.131C689.425 707.489 708.421 705.848 730.242 710.207C718.914 686.232 704.734 656.257 694.079 633.735C692.68 630.775 691.281 627.788 689.828 624.721C643.657 527.018 574.373 380.478 574.373 380.478L552.847 390.649C552.847 390.649 630.042 540.041 646.078 573.945C668.76 621.895 568.48 632.631 568.48 632.631L466.747 431.36L423.696 451.73L551.233 721.481C551.233 721.481 579.135 736.953 600.041 748.551H600.014Z" fill="#EAD6AD"/>
</g>
<defs>
<clipPath id="clip0_98_834">
<rect width="748" height="818" fill="white"/>
</clipPath>
</defs>
</svg>
