<svg width="748" height="818" viewBox="0 0 748 818" fill="none" xmlns="http://www.w3.org/2000/svg">
<g clip-path="url(#clip0_98_837)">
<path d="M748 0H0V818H748V0Z" fill="#330D2F"/>
<path d="M295.837 274.541C292.635 262.164 282.868 255.652 277.164 244.889C277.782 233.238 291.316 231.327 295.648 221.048C296.429 219.165 295.864 217.066 295.917 214.779C296.106 207.89 295.917 211.469 295.971 201.352C296.025 191.234 295.971 162.335 295.971 150.603C295.971 147.24 295.971 146.11 295.971 145.948C295.971 146.325 295.971 150.496 295.971 143.285C295.971 132.279 295.971 114.897 295.971 102.6C289.702 102.035 283.406 102.411 277.164 102.304C276.706 99.5592 277.998 96.9222 276.195 94.2314C253.324 94.2314 209.198 94.2314 191.332 94.2314C173.466 94.2314 181.511 94.2314 168.865 94.2314C170.103 195.567 169.376 296.929 169.161 398.291C178.659 398.291 176.372 398.291 188.883 398.291C201.395 398.291 228.947 398.291 244.311 398.291C245.333 392.021 244.607 385.752 244.849 379.482C261.881 379.267 278.912 379.886 295.944 379.025C295.944 370.037 295.944 351.175 295.944 344.448V340.466C295.944 340.412 295.944 340.223 295.944 339.416C295.944 336.591 295.944 337.317 295.944 334.546C295.944 321.442 295.89 307.234 295.783 293.942C295.783 292.596 295.917 291.224 295.917 290.229C295.917 287.242 295.998 282.963 295.917 280.569C295.837 278.174 296.213 276.156 295.81 274.622L295.837 274.541ZM186.139 167.259C188.318 153.617 193.188 146.836 207.987 145.76C229.781 144.172 254.589 146.002 276.921 145.276C273.262 151.411 267.208 157.465 263.845 163.465C259.271 171.619 259.459 176.677 264.329 184.588C267.585 189.862 273.343 195.163 277.056 200.437C276.706 202.886 275.522 204.069 273.047 204.473C272.293 204.608 271.19 204.392 270.437 204.5C267.962 204.957 266.805 206.061 266.401 208.563C266.266 209.317 266.428 210.42 266.401 211.173C266.347 211.927 266.455 212.572 266.401 213.299C266.186 215.048 265.432 216.124 263.899 217.012L242.347 217.954C241.028 217.846 240.113 218.035 238.66 217.954C229.055 217.335 216.974 218.896 207.799 217.631C193.996 215.721 187.753 209.693 186.193 195.97C185.197 187.44 184.847 175.709 186.193 167.233L186.139 167.259ZM279.8 274.649C279.8 275.456 279.8 277.716 279.8 279.008C279.8 280.326 279.8 282.318 279.747 283.744C273.208 302.337 271.782 316.652 279.72 335.03C278.993 337.344 278.509 338.878 275.63 338.959C266.966 339.228 257.629 338.878 248.992 339.12C246.14 339.201 245.495 340.788 244.795 343.076C244.096 345.363 243.342 347.112 240.598 347.031C230.266 346.654 217.485 348.107 207.664 346.789C193.753 344.905 187.457 338.959 185.924 325.074C184.794 314.849 184.794 301.207 185.924 290.982C187.484 277.071 193.7 271.178 207.664 269.402C218.131 268.056 231.692 269.805 242.535 269.16C244.149 269.052 245.306 269.213 246.544 269.187C249.988 269.133 253.432 269.187 256.688 269.187C258.302 269.187 260.428 269.187 261.531 269.187C263.764 269.187 264.41 269.187 266.455 269.187C268.5 269.187 270.867 269.187 273.128 269.187C274.258 269.187 276.41 269.187 277.486 269.187C278.563 269.187 278.859 269.187 279.773 269.133C279.72 271.178 279.773 272.362 279.773 274.703L279.8 274.649Z" fill="#F4D3E9"/>
<path d="M454.289 540.768C457.491 553.146 467.258 559.657 472.962 570.421C472.343 582.072 458.809 583.982 454.477 594.261C453.697 596.144 454.262 598.243 454.208 600.53C454.02 607.419 454.208 603.84 454.154 613.957C454.101 624.075 454.154 652.974 454.154 664.706C454.154 668.069 454.154 669.199 454.154 669.361C454.154 668.984 454.154 664.813 454.154 672.025C454.154 683.03 454.154 700.413 454.154 712.709C460.424 713.274 466.72 712.898 472.962 713.005C473.419 715.75 472.128 718.387 473.931 721.078C496.801 721.078 540.928 721.078 558.794 721.078C576.66 721.078 568.615 721.078 581.261 721.078C580.023 619.743 580.749 518.381 580.965 417.019C571.467 417.019 573.754 417.019 561.242 417.019C548.731 417.019 521.178 417.019 505.815 417.019C504.792 423.288 505.519 429.558 505.277 435.827C488.245 436.042 471.213 435.424 454.181 436.285C454.181 445.272 454.181 464.134 454.181 470.861V474.844C454.181 474.897 454.181 475.086 454.181 475.893C454.181 478.718 454.181 477.992 454.181 480.763C454.181 493.868 454.235 508.075 454.343 521.367C454.343 522.713 454.208 524.085 454.208 525.081C454.208 528.067 454.128 532.346 454.208 534.741C454.289 537.135 453.912 539.154 454.316 540.687L454.289 540.768ZM563.987 648.05C561.807 661.692 556.937 668.473 542.139 669.549C520.344 671.137 495.537 669.307 473.204 670.034C476.863 663.899 482.917 657.844 486.281 651.844C490.855 643.691 490.667 638.632 485.796 630.721C482.541 625.447 476.783 620.146 473.07 614.872C473.419 612.424 474.603 611.24 477.079 610.836C477.832 610.702 478.935 610.917 479.689 610.809C482.164 610.352 483.321 609.249 483.725 606.746C483.859 605.993 483.698 604.89 483.725 604.136C483.778 603.383 483.671 602.737 483.725 602.01C483.94 600.261 484.693 599.185 486.227 598.297L507.779 597.355C509.097 597.463 510.012 597.275 511.465 597.355C521.071 597.974 533.152 596.414 542.327 597.678C556.13 599.589 562.372 605.616 563.933 619.339C564.928 627.869 565.278 639.601 563.933 648.077L563.987 648.05ZM470.325 540.66C470.325 539.853 470.325 537.593 470.325 536.301C470.325 534.983 470.325 532.992 470.379 531.565C476.917 512.972 478.343 498.657 470.406 480.279C471.132 477.965 471.617 476.431 474.496 476.35C483.16 476.081 492.496 476.431 501.133 476.189C503.985 476.108 504.631 474.521 505.331 472.234C506.03 469.946 506.783 468.197 509.528 468.278C519.86 468.655 532.641 467.202 542.461 468.52C556.372 470.404 562.668 476.35 564.202 490.235C565.332 500.46 565.332 514.102 564.202 524.327C562.641 538.239 556.426 544.131 542.461 545.907C531.995 547.253 518.434 545.504 507.591 546.15C505.976 546.257 504.819 546.096 503.582 546.123C500.138 546.176 496.694 546.123 493.438 546.123C491.823 546.123 489.698 546.123 488.595 546.123C486.361 546.123 485.716 546.123 483.671 546.123C481.626 546.123 479.258 546.123 476.998 546.123C475.868 546.123 473.715 546.123 472.639 546.123C471.563 546.123 471.267 546.123 470.352 546.176C470.406 544.131 470.352 542.948 470.352 540.607L470.325 540.66Z" fill="#F4D3E9"/>
<path d="M193.377 616.326C205.754 613.123 212.265 603.356 223.028 597.651C234.678 598.27 236.589 611.805 246.867 616.137C248.75 616.917 250.849 616.352 253.136 616.406C260.024 616.595 256.446 616.406 266.563 616.46C276.679 616.514 305.577 616.46 317.308 616.46C320.671 616.46 321.802 616.46 321.963 616.46C321.586 616.46 317.416 616.46 324.627 616.46C335.631 616.46 353.013 616.46 365.309 616.46C365.874 610.191 365.498 603.894 365.605 597.651C368.35 597.194 370.987 598.486 373.677 596.683C373.677 573.811 373.677 529.682 373.677 511.815C373.677 493.948 373.677 501.994 373.677 489.347C272.347 490.585 170.991 489.858 69.634 489.643C69.634 499.142 69.634 496.854 69.634 509.367C69.634 521.879 69.634 549.432 69.634 564.797C75.9032 565.819 82.1724 565.093 88.4417 565.335C88.6569 582.368 88.0381 599.4 88.8991 616.433C97.8858 616.433 116.747 616.433 123.474 616.433H127.456C127.51 616.433 127.698 616.433 128.505 616.433C131.331 616.433 130.604 616.433 133.375 616.433C146.479 616.433 160.686 616.379 173.977 616.272C175.323 616.272 176.695 616.406 177.69 616.406C180.677 616.406 184.955 616.487 187.35 616.406C189.745 616.326 191.763 616.702 193.296 616.299L193.377 616.326ZM300.653 506.649C314.295 508.828 321.075 513.699 322.151 528.498C323.739 550.294 321.909 575.103 322.636 597.436C316.501 593.777 310.447 587.722 304.447 584.359C296.294 579.785 291.236 579.973 283.325 584.843C278.052 588.099 272.751 593.857 267.477 597.571C265.029 597.221 263.845 596.037 263.441 593.561C263.307 592.808 263.522 591.705 263.414 590.951C262.957 588.476 261.854 587.319 259.352 586.915C258.598 586.781 257.495 586.942 256.742 586.915C255.988 586.861 255.343 586.969 254.616 586.915C252.867 586.7 251.791 585.947 250.903 584.413L249.961 562.86C250.069 561.541 249.881 560.626 249.961 559.173C250.58 549.567 249.019 537.485 250.284 528.31C252.194 514.506 258.222 508.263 271.944 506.703C280.473 505.707 292.204 505.357 300.68 506.703L300.653 506.649ZM193.269 600.315C192.462 600.315 190.202 600.315 188.91 600.315C187.592 600.315 185.601 600.315 184.175 600.262C165.583 593.723 151.268 592.297 132.891 600.235C130.577 599.508 129.044 599.024 128.963 596.145C128.694 587.48 129.044 578.143 128.801 569.506C128.721 566.654 127.133 566.008 124.846 565.308C122.559 564.609 120.81 563.855 120.891 561.111C121.268 550.778 119.815 537.997 121.133 528.175C123.016 514.264 128.963 507.967 142.847 506.434C153.071 505.304 166.713 505.304 176.937 506.434C190.848 507.994 196.74 514.21 198.516 528.175C199.861 538.642 198.112 552.204 198.758 563.048C198.866 564.662 198.704 565.819 198.731 567.057C198.785 570.501 198.731 573.946 198.731 577.201C198.731 578.816 198.731 580.942 198.731 582.045C198.731 584.278 198.731 584.924 198.731 586.969C198.731 589.014 198.731 591.382 198.731 593.642C198.731 594.772 198.731 596.925 198.731 598.001C198.731 599.078 198.731 599.374 198.785 600.288C196.74 600.235 195.556 600.288 193.215 600.288L193.269 600.315Z" fill="#F4D3E9"/>
<path d="M537.914 198.984C525.537 202.186 519.026 211.953 508.263 217.658C496.613 217.039 494.702 203.504 484.424 199.172C482.541 198.392 480.442 198.957 478.155 198.903C471.267 198.715 474.846 198.903 464.729 198.849C454.612 198.795 425.714 198.849 413.983 198.849C410.62 198.849 409.49 198.849 409.328 198.849C409.705 198.849 413.875 198.849 406.665 198.849C395.66 198.849 378.278 198.849 365.982 198.849C365.417 205.119 365.794 211.415 365.686 217.658C362.941 218.115 360.305 216.824 357.614 218.627C357.614 241.498 357.614 285.627 357.614 303.494C357.614 321.361 357.614 313.315 357.614 325.962C458.944 324.724 560.3 325.451 661.657 325.666C661.657 316.168 661.657 318.455 661.657 305.943C661.657 293.43 661.657 265.877 661.657 250.512C655.388 249.49 649.119 250.216 642.85 249.974C642.634 232.942 643.253 215.909 642.392 198.876C633.405 198.876 614.544 198.876 607.817 198.876H603.835C603.781 198.876 603.593 198.876 602.786 198.876C599.961 198.876 600.687 198.876 597.916 198.876C584.812 198.876 570.606 198.93 557.314 199.038C555.969 199.038 554.596 198.903 553.601 198.903C550.614 198.903 546.336 198.822 543.941 198.903C541.547 198.984 539.529 198.607 537.995 199.011L537.914 198.984ZM430.638 308.66C416.997 306.481 410.216 301.61 409.14 286.811C407.552 265.016 409.382 240.207 408.656 217.873C414.79 221.533 420.844 227.587 426.844 230.95C434.997 235.525 440.055 235.336 447.966 230.466C453.24 227.21 458.54 221.452 463.814 217.739C466.262 218.088 467.446 219.272 467.85 221.748C467.984 222.501 467.769 223.605 467.877 224.358C468.334 226.833 469.437 227.991 471.94 228.394C472.693 228.529 473.796 228.367 474.55 228.394C475.303 228.448 475.949 228.34 476.675 228.394C478.424 228.609 479.5 229.363 480.388 230.897L481.33 252.45C481.222 253.768 481.411 254.683 481.33 256.136C480.711 265.742 482.272 277.824 481.007 287C479.097 300.803 473.07 307.046 459.347 308.607C450.818 309.602 439.087 309.952 430.611 308.607L430.638 308.66ZM538.022 214.994C538.829 214.994 541.089 214.994 542.381 214.994C543.699 214.994 545.69 214.994 547.116 215.048C565.709 221.586 580.023 223.013 598.4 215.075C600.714 215.801 602.248 216.286 602.328 219.165C602.597 227.829 602.248 237.166 602.49 245.804C602.571 248.656 604.158 249.302 606.445 250.001C608.732 250.701 610.481 251.454 610.4 254.199C610.024 264.531 611.477 277.313 610.158 287.134C608.275 301.045 602.328 307.342 588.445 308.876C578.22 310.006 564.579 310.006 554.354 308.876C540.443 307.315 534.551 301.099 532.775 287.134C531.43 276.667 533.179 263.105 532.533 252.261C532.425 250.647 532.587 249.49 532.56 248.252C532.506 244.808 532.56 241.364 532.56 238.108C532.56 236.493 532.56 234.368 532.56 233.264C532.56 231.031 532.56 230.385 532.56 228.34C532.56 226.295 532.56 223.927 532.56 221.667C532.56 220.537 532.56 218.384 532.56 217.308C532.56 216.232 532.56 215.936 532.506 215.021C534.551 215.075 535.735 215.021 538.076 215.021L538.022 214.994Z" fill="#F4D3E9"/>
</g>
<defs>
<clipPath id="clip0_98_837">
<rect width="748" height="818" fill="white"/>
</clipPath>
</defs>
</svg>
