<svg width="748" height="818" viewBox="0 0 748 818" fill="none" xmlns="http://www.w3.org/2000/svg">
<g clip-path="url(#clip0_98_835)">
<path d="M748 0H0V818H748V0Z" fill="#0D332E"/>
<path d="M552.363 536.947C551.367 535.548 550.426 534.229 549.619 533.126C540.497 522.201 531.887 538.965 523.304 538.965C516.846 536.57 510.416 534.175 503.958 529.386C503.958 538.965 503.958 550.939 503.958 559.926C503.958 561.11 503.958 562.294 503.958 563.532V661.046H512.541C512.541 661.046 510.389 600.396 510.389 586.834C510.389 567.676 544.775 579.65 544.775 579.65L546.928 661.019H564.121V553.307L552.363 536.947Z" fill="#FFA92E"/>
<path d="M477.59 514.748C473.5 511.788 472.424 509.663 474.038 509.097C470.836 505.088 470.325 502.613 470.675 498.765C468.603 499.599 467.419 499.061 463.733 498.173C463.841 501.456 463.114 503.043 460.316 505.061C463.114 506.703 463.841 508.748 463.975 513.618C466.693 512.165 468.845 513.537 473.07 517.116C473.554 513.322 475.464 512.569 477.59 514.721V514.748Z" fill="#FFA92E"/>
<path d="M473.85 565.254L473.392 529.359H467.392V586.78C467.392 587.13 467.392 587.48 467.392 587.857C467.392 591.597 473.85 593.992 467.392 599.535C467.392 600.019 467.392 600.503 467.392 600.961C467.392 609.571 467.392 617.886 467.392 626.281C467.392 626.739 467.392 627.223 467.392 627.68C469.545 632.282 471.697 634.676 467.473 639.009C467.392 639.493 467.392 639.977 467.392 640.435C467.392 642.48 467.392 644.444 467.392 646.247V661.019H478.128V645.305C478.128 644.256 478.128 643.179 478.074 642.049C477.697 640.542 477.348 639.089 477.052 637.636C476.944 637.152 476.836 636.668 476.756 636.183C475.975 634.703 475.975 632.308 475.599 629.08C475.545 628.622 475.491 628.138 475.437 627.68C474.415 618.37 474.845 609.464 476.783 600.046C476.89 599.562 476.971 599.104 477.079 598.62C478.101 596.413 478.101 591.624 478.101 589.229V560.518L473.796 565.308L473.85 565.254Z" fill="#FFA92E"/>
<path d="M192.247 553.953C189.691 542.947 181.888 537.162 177.341 527.583C177.825 517.223 188.641 515.528 192.112 506.38C192.731 504.711 192.274 502.828 192.328 500.783C192.462 494.648 192.328 497.85 192.381 488.836C192.435 479.821 192.381 454.124 192.381 443.684C192.381 440.697 192.381 439.702 192.381 439.54C192.381 439.89 192.381 443.577 192.381 437.172C192.381 427.378 192.381 411.933 192.381 400.981C187.377 400.47 182.345 400.82 177.368 400.712C176.991 398.264 178.04 395.923 176.614 393.528C158.345 393.528 123.097 393.528 108.837 393.528C94.5763 393.528 101.007 393.528 90.8901 393.528C91.8588 483.669 91.2937 573.838 91.1323 663.979C98.7199 663.979 96.8903 663.979 106.873 663.979C116.855 663.979 138.864 663.979 151.134 663.979C151.968 658.409 151.376 652.812 151.564 647.242C165.152 647.054 178.767 647.592 192.381 646.839C192.381 638.847 192.381 622.057 192.381 616.083V612.531C192.381 612.504 192.381 612.316 192.381 611.589C192.381 609.06 192.381 609.733 192.381 607.257C192.381 595.579 192.354 582.959 192.247 571.147C192.247 569.936 192.354 568.725 192.354 567.837C192.354 565.173 192.435 561.379 192.354 559.254C192.274 557.128 192.597 555.325 192.274 553.98L192.247 553.953ZM104.639 458.537C106.361 446.402 110.263 440.374 122.102 439.406C139.51 438.007 159.313 439.621 177.152 438.975C174.219 444.438 169.403 449.819 166.713 455.174C163.053 462.412 163.215 466.933 167.089 473.956C169.699 478.664 174.3 483.373 177.26 488.055C176.964 490.235 176.022 491.284 174.058 491.661C173.466 491.769 172.578 491.58 171.986 491.688C169.995 492.091 169.08 493.087 168.757 495.294C168.65 495.966 168.757 496.935 168.757 497.608C168.704 498.28 168.811 498.845 168.757 499.491C168.596 501.052 168.004 502.02 166.766 502.774L149.546 503.608C148.497 503.5 147.744 503.689 146.613 503.608C138.945 503.07 129.286 504.469 121.967 503.339C110.962 501.644 105.958 496.262 104.72 484.073C103.94 476.485 103.644 466.045 104.72 458.51L104.639 458.537ZM179.439 554.06C179.439 554.787 179.439 556.778 179.439 557.935C179.439 559.092 179.439 560.895 179.412 562.133C174.193 578.654 173.063 591.408 179.412 607.742C178.847 609.813 178.444 611.159 176.157 611.24C169.242 611.482 161.789 611.159 154.874 611.374C152.587 611.455 152.075 612.854 151.537 614.899C150.972 616.917 150.38 618.505 148.201 618.397C139.941 618.074 129.743 619.366 121.886 618.182C110.774 616.514 105.743 611.213 104.532 598.862C103.644 589.767 103.617 577.632 104.532 568.537C105.769 556.186 110.747 550.939 121.886 549.351C130.227 548.168 141.071 549.728 149.735 549.136C151.026 549.055 151.968 549.19 152.936 549.136C155.681 549.082 158.452 549.136 161.035 549.136C162.327 549.136 164.022 549.136 164.91 549.136C166.686 549.136 167.197 549.136 168.838 549.136C170.479 549.136 172.363 549.136 174.166 549.136C175.081 549.136 176.803 549.136 177.637 549.136C178.498 549.136 178.74 549.136 179.466 549.109C179.439 550.939 179.466 551.988 179.466 554.06H179.439Z" fill="#FFA92E"/>
<path d="M280.446 530.058C274.742 529.897 269.038 529.924 263.361 530.058C266.67 539.665 269.334 553.011 269.657 562.456C270.033 573.811 268.742 581.372 267.558 591.597C266.509 600.692 264.921 609.033 263.28 617.967C253.943 617.913 244.687 618.02 235.324 617.913C231.692 610.944 228.005 601.768 226.848 594.261C224.427 578.304 226.606 564.312 226.741 548.356C226.768 544.562 226.822 538.427 226.741 534.229C223.889 532.722 221.01 531.431 218.158 529.978C218.158 547.199 218.158 564.016 218.158 581.453C218.158 582.287 218.158 583.82 218.158 585.327C218.158 592.727 218.185 601.149 218.292 608.656C218.292 609.921 218.158 611.643 218.158 612.424C218.158 627.25 218.158 641.565 218.158 656.203C222.436 656.203 226.714 656.203 230.992 656.203C230.992 658.813 230.992 661.423 230.992 664.033C242.804 664.033 254.616 664.033 266.428 664.033C266.428 661.423 266.428 658.813 266.428 656.203C271.11 656.203 275.791 656.203 280.473 656.203C280.473 631.071 280.473 606.558 280.473 581.13C280.473 580.188 280.473 579.515 280.473 577.174C280.419 565.119 280.446 552.177 280.473 539.046C280.473 537.916 280.473 531.915 280.473 530.112L280.446 530.058Z" fill="#FFA92E"/>
<path d="M325.595 546.123C334.905 546.123 344.215 546.123 353.551 546.123C353.363 543.271 353.739 540.687 353.443 537.754C352.932 532.803 349.596 529.601 344.968 529.44C338.403 529.198 324.734 529.44 320.16 529.386C315.586 529.332 321.855 529.386 318.707 529.386C315.586 529.386 310.016 529.386 306.303 529.386C306.223 574.86 306.303 620.335 306.276 665.809C313.434 665.809 320.618 665.809 327.748 665.809C319.192 644.713 314.214 624.452 312.788 601.015C312.088 589.633 313.299 576.798 314.833 565.281C318.438 558.823 321.99 552.5 325.595 546.096V546.123Z" fill="#FFA92E"/>
<path d="M423.4 536.947C422.593 535.871 421.624 534.014 420.656 533.207C410.539 524.811 404.458 536.57 394.368 538.938C387.561 536.409 381.13 533.583 375.022 529.386C375.022 539.503 375.022 549.836 375.022 559.872C375.022 561.191 375.022 562.456 375.022 563.478C375.022 596.117 375.022 628.487 375.022 661.046L383.444 660.373C384.144 641.161 379.973 605.024 381.991 588.61C384.843 565.415 404.996 579.327 415.786 579.381C416.674 607.069 417.239 633.735 418.019 661.019C423.75 661.019 429.481 661.019 435.212 661.019C435.212 625.124 435.212 589.202 435.212 553.307C431.257 547.871 427.436 542.382 423.427 536.947H423.4Z" fill="#FFA92E"/>
<path d="M656.518 529.359H581.314V541.333C581.314 553.307 581.314 567.676 581.314 579.488C581.314 580.834 581.314 582.61 581.314 584.413V591.597H598.427C600.203 591.597 601.898 591.597 603.136 591.516C613.548 591.597 617.853 572.465 628.589 577.255C637.172 584.439 641.477 594.019 639.728 605.428C639.648 607.096 639.54 608.737 639.459 610.379C639.379 612.02 639.325 613.608 639.325 615.141V621.599C639.325 622.729 639.244 624.155 639.244 625.313C641.477 641.861 641.477 656.23 639.271 671.89C639.271 673.155 639.325 674.258 639.325 675.119V677.756H636.446C635.531 677.756 634.455 677.756 633.244 677.756C617.853 670.572 602.813 668.177 589.09 679.128C587.691 679.532 586.319 679.855 584.947 680.124C573.942 682.33 563.314 681.577 551.394 677.729C550.076 677.729 548.865 677.729 547.789 677.729C544.587 677.729 542.65 677.729 542.65 677.729V663.36H534.067V696.861L598.427 693.847C609.27 689.676 620.033 694.466 630.499 694.385C632.248 694.466 633.782 694.466 635.1 694.466H639.352L656.545 673.235V671.433C652.24 656.176 652.24 641.807 656.491 626.712C656.545 625.447 656.545 624.263 656.545 623.106V580.78C656.545 579.435 656.545 578.116 656.545 576.798C656.545 569.99 656.545 565.2 656.545 558.312C656.545 557.182 656.545 556.052 656.545 554.975V529.305L656.518 529.359ZM635.8 555.971C635.612 556.913 635.531 557.532 635.531 557.532C631.307 556.859 627.486 557.424 623.88 558.662C622.67 559.065 621.513 559.55 620.356 560.088C619.199 560.626 618.096 561.191 616.992 561.783C615.889 562.375 614.813 563.021 613.737 563.64C611.584 564.904 609.512 566.142 607.441 567.245C606.041 567.757 604.669 568.214 603.324 568.591C597.969 570.098 593.126 570.098 589.898 565.308C585.593 558.124 585.593 543.755 589.898 538.965C592.05 534.175 602.786 536.57 610.32 536.597C611.396 536.597 612.472 536.597 613.548 536.597C614.625 536.597 615.701 536.597 616.777 536.597C624.311 536.597 632.894 534.175 639.352 538.965C641.504 541.36 639.352 550.939 635.827 555.998L635.8 555.971Z" fill="#FFA92E"/>
<path d="M194.991 300.561C195.987 301.96 196.929 303.279 197.736 304.382C206.857 315.307 215.467 298.543 224.05 298.543C230.508 300.938 236.938 303.333 243.396 308.122C243.396 298.543 243.396 286.569 243.396 277.582C243.396 276.398 243.396 275.214 243.396 273.976V176.462H234.813C234.813 176.462 236.965 237.112 236.965 250.674C236.965 269.832 202.579 257.858 202.579 257.858L200.426 176.489H183.233V284.201L194.991 300.561Z" fill="#FFA92E"/>
<path d="M269.791 322.76C273.881 325.72 274.957 327.846 273.343 328.411C276.545 332.42 277.056 334.895 276.706 338.743C278.778 337.909 279.962 338.447 283.648 339.335C283.54 336.052 284.267 334.465 287.065 332.447C284.267 330.805 283.54 328.76 283.406 323.89C280.688 325.343 278.536 323.971 274.312 320.392C273.827 324.186 271.917 324.94 269.791 322.787V322.76Z" fill="#FFA92E"/>
<path d="M273.504 272.254L273.962 308.149H279.962V250.728C279.962 250.378 279.962 250.028 279.962 249.651C279.962 245.911 273.504 243.516 279.962 237.973C279.962 237.489 279.962 237.005 279.962 236.547C279.962 227.937 279.962 219.622 279.962 211.227C279.962 210.769 279.962 210.285 279.962 209.828C277.809 205.226 275.657 202.832 279.881 198.499C279.962 198.015 279.962 197.531 279.962 197.073C279.962 195.028 279.962 193.064 279.962 191.261V176.489H269.226V192.203C269.226 193.252 269.226 194.329 269.28 195.459C269.657 196.966 270.006 198.419 270.302 199.872C270.41 200.356 270.518 200.84 270.598 201.325C271.379 202.805 271.379 205.2 271.755 208.428C271.809 208.886 271.863 209.37 271.917 209.828C272.939 219.138 272.509 228.044 270.571 237.462C270.464 237.946 270.383 238.404 270.275 238.888C269.253 241.095 269.253 245.884 269.253 248.279V276.99L273.558 272.2L273.504 272.254Z" fill="#FFA92E"/>
<path d="M555.107 283.555C557.663 294.561 565.466 300.346 570.014 309.925C569.529 320.284 558.713 321.98 555.242 331.128C554.623 332.797 555.08 334.68 555.027 336.725C554.892 342.86 555.027 339.658 554.973 348.672C554.919 357.686 554.973 383.383 554.973 393.824C554.973 396.811 554.973 397.806 554.973 397.968C554.973 397.618 554.973 393.931 554.973 400.335C554.973 410.13 554.973 425.575 554.973 436.527C559.977 437.038 565.009 436.688 569.987 436.796C570.363 439.244 569.314 441.585 570.74 443.98C589.01 443.98 624.257 443.98 638.517 443.98C652.778 443.98 646.347 443.98 656.464 443.98C655.495 353.839 656.06 263.67 656.222 173.529C648.634 173.529 650.464 173.529 640.482 173.529C630.499 173.529 608.49 173.529 596.22 173.529C595.386 179.099 595.978 184.696 595.79 190.266C582.202 190.454 568.588 189.916 554.973 190.669C554.973 198.661 554.973 215.451 554.973 221.425V224.977C554.973 225.004 554.973 225.192 554.973 225.918C554.973 228.448 554.973 227.775 554.973 230.251C554.973 241.929 555 254.548 555.107 266.361C555.107 267.572 555 268.783 555 269.671C555 272.335 554.919 276.129 555 278.254C555.08 280.38 554.758 282.183 555.08 283.528L555.107 283.555ZM642.715 378.971C640.993 391.106 637.091 397.133 625.253 398.102C607.844 399.501 588.041 397.887 570.202 398.533C573.135 393.07 577.951 387.689 580.642 382.334C584.301 375.096 584.139 370.575 580.265 363.552C577.655 358.843 573.054 354.135 570.094 349.453C570.39 347.273 571.332 346.224 573.296 345.847C573.888 345.739 574.776 345.928 575.368 345.82C577.359 345.416 578.274 344.421 578.597 342.214C578.704 341.542 578.597 340.573 578.597 339.9C578.651 339.228 578.543 338.663 578.597 338.017C578.758 336.456 579.35 335.487 580.588 334.734L597.808 333.9C598.857 334.007 599.611 333.819 600.741 333.9C608.409 334.438 618.069 333.039 625.387 334.169C636.392 335.864 641.396 341.246 642.634 353.435C643.414 361.023 643.71 371.463 642.634 378.998L642.715 378.971ZM567.915 283.448C567.915 282.721 567.915 280.73 567.915 279.573C567.915 278.416 567.915 276.613 567.942 275.375C573.162 258.854 574.292 246.099 567.942 229.766C568.507 227.694 568.91 226.349 571.197 226.268C578.112 226.026 585.566 226.349 592.48 226.134C594.768 226.053 595.279 224.654 595.817 222.609C596.382 220.591 596.974 219.003 599.153 219.111C607.414 219.434 617.611 218.142 625.468 219.326C636.58 220.994 641.612 226.295 642.822 238.646C643.71 247.741 643.737 259.876 642.822 268.971C641.585 281.322 636.607 286.569 625.468 288.156C617.127 289.34 606.284 287.78 597.62 288.372C596.328 288.452 595.386 288.318 594.418 288.372C591.673 288.426 588.902 288.372 586.319 288.372C585.027 288.372 583.332 288.372 582.444 288.372C580.669 288.372 580.157 288.372 578.516 288.372C576.875 288.372 574.991 288.372 573.189 288.372C572.274 288.372 570.552 288.372 569.718 288.372C568.857 288.372 568.614 288.372 567.888 288.399C567.915 286.569 567.888 285.519 567.888 283.448H567.915Z" fill="#FFA92E"/>
<path d="M466.908 307.45C472.612 307.611 478.316 307.584 483.994 307.45C480.684 297.843 478.02 284.497 477.697 275.052C477.321 263.697 478.612 256.136 479.796 245.911C480.846 236.816 482.433 228.475 484.074 219.541C493.411 219.595 502.667 219.488 512.03 219.595C515.663 226.564 519.349 235.74 520.506 243.247C522.927 259.204 520.748 273.196 520.613 289.152C520.586 292.946 520.533 299.081 520.613 303.279C523.465 304.786 526.344 306.077 529.196 307.53C529.196 290.309 529.196 273.492 529.196 256.055C529.196 255.221 529.196 253.688 529.196 252.181C529.196 244.781 529.17 236.359 529.062 228.852C529.062 227.587 529.196 225.865 529.196 225.084C529.196 210.258 529.196 195.943 529.196 181.305C524.918 181.305 520.64 181.305 516.362 181.305C516.362 178.695 516.362 176.085 516.362 173.475C504.55 173.475 492.738 173.475 480.926 173.475C480.926 176.085 480.926 178.695 480.926 181.305C476.245 181.305 471.563 181.305 466.881 181.305C466.881 206.437 466.881 230.95 466.881 256.378C466.881 257.32 466.881 257.993 466.881 260.334C466.935 272.389 466.908 285.331 466.881 298.462C466.881 299.592 466.881 305.593 466.881 307.396L466.908 307.45Z" fill="#FFA92E"/>
<path d="M421.786 291.386C412.476 291.386 403.167 291.386 393.83 291.386C394.018 294.238 393.642 296.821 393.938 299.754C394.449 304.705 397.785 307.907 402.413 308.068C408.978 308.311 422.647 308.068 427.221 308.122C431.795 308.176 425.526 308.122 428.674 308.122C431.795 308.122 437.365 308.122 441.078 308.122C441.159 262.648 441.078 217.174 441.105 171.699C433.948 171.699 426.764 171.699 419.633 171.699C428.19 192.795 433.167 213.057 434.593 236.493C435.293 247.875 434.082 260.711 432.549 272.227C428.943 278.685 425.391 285.008 421.786 291.412V291.386Z" fill="#FFA92E"/>
<path d="M323.954 300.561C324.761 301.637 325.73 303.494 326.698 304.301C336.815 312.697 342.896 300.938 352.986 298.57C359.793 301.099 366.224 303.925 372.332 308.122C372.332 298.005 372.332 287.672 372.332 277.636C372.332 276.317 372.332 275.052 372.332 274.03C372.332 241.391 372.332 209.02 372.332 176.462L363.91 177.135C363.211 196.347 367.381 232.484 365.363 248.898C362.511 272.093 342.358 258.181 331.569 258.127C330.681 230.439 330.116 203.773 329.335 176.489C323.604 176.489 317.873 176.489 312.142 176.489C312.142 212.384 312.142 248.306 312.142 284.201C316.097 289.637 319.918 295.126 323.927 300.561H323.954Z" fill="#FFA92E"/>
<path d="M90.8362 308.149H166.04V296.175C166.04 284.201 166.04 269.832 166.04 258.02C166.04 256.674 166.04 254.898 166.04 253.096V245.911H148.927C147.151 245.911 145.456 245.911 144.219 245.992C133.806 245.911 129.501 265.043 118.765 260.253C110.182 253.069 105.877 243.489 107.626 232.08C107.707 230.412 107.814 228.771 107.895 227.129C107.976 225.488 108.029 223.9 108.029 222.367V215.909C108.029 214.779 108.11 213.353 108.11 212.196C105.877 195.647 105.877 181.278 108.083 165.618C108.083 164.353 108.029 163.25 108.029 162.389V159.752H110.908C111.823 159.752 112.9 159.752 114.11 159.752C129.501 166.936 144.542 169.331 158.264 158.38C159.663 157.976 161.035 157.653 162.407 157.384C173.412 155.178 184.04 155.931 195.96 159.779C197.278 159.779 198.489 159.779 199.565 159.779C202.767 159.779 204.704 159.779 204.704 159.779V174.148H213.288V140.647L148.927 143.661C138.084 147.832 127.321 143.042 116.855 143.123C115.106 143.042 113.572 143.042 112.254 143.042H108.003L90.8093 164.273V166.075C95.1144 181.332 95.1144 195.701 90.8631 210.796C90.8093 212.061 90.8093 213.245 90.8093 214.402V256.728C90.8093 258.074 90.8093 259.392 90.8093 260.71C90.8093 267.518 90.8093 272.308 90.8093 279.196C90.8093 280.326 90.8093 281.456 90.8093 282.533V308.203L90.8362 308.149ZM111.554 281.537C111.743 280.595 111.823 279.977 111.823 279.977C116.048 280.649 119.868 280.084 123.474 278.846C124.685 278.443 125.842 277.958 126.999 277.42C128.156 276.882 129.259 276.317 130.362 275.725C131.465 275.133 132.541 274.487 133.618 273.868C135.77 272.604 137.842 271.366 139.914 270.263C141.313 269.752 142.685 269.294 144.03 268.917C149.385 267.411 154.228 267.411 157.457 272.2C161.762 279.385 161.762 293.753 157.457 298.543C155.304 303.333 144.568 300.938 137.035 300.911C135.958 300.911 134.882 300.911 133.806 300.911C132.73 300.911 131.653 300.911 130.577 300.911C123.043 300.911 114.46 303.333 108.003 298.543C105.85 296.148 108.003 286.569 111.527 281.51L111.554 281.537Z" fill="#FFA92E"/>
</g>
<defs>
<clipPath id="clip0_98_835">
<rect width="748" height="818" fill="white"/>
</clipPath>
</defs>
</svg>
