<svg width="1728" height="834" viewBox="0 0 1728 834" fill="none" xmlns="http://www.w3.org/2000/svg">
<g clip-path="url(#clip0_98_833)">
<path d="M1728 0H0V834H1728V0Z" fill="#00002E"/>
<path d="M235.994 49.3817H144.218V63.0988C144.218 76.8159 144.218 93.2764 144.218 106.829C144.218 108.365 144.218 110.423 144.218 112.48V120.711H165.091C167.267 120.711 169.312 120.711 170.833 120.601C183.525 120.711 188.769 98.7633 201.88 104.25C212.368 112.48 217.613 123.454 215.462 136.568C215.357 138.461 215.253 140.381 215.148 142.246C215.043 144.112 214.99 145.95 214.99 147.706V155.086C214.99 156.403 214.912 158.021 214.885 159.365C217.613 178.322 217.613 194.783 214.938 212.752C214.964 214.206 214.99 215.468 214.99 216.456V219.474H211.477C210.375 219.474 209.038 219.474 207.57 219.474C188.795 211.244 170.44 208.5 153.684 221.065C151.98 221.531 150.302 221.888 148.624 222.217C135.198 224.769 122.219 223.863 107.692 219.474C106.066 219.474 104.598 219.474 103.287 219.474C99.3796 219.474 97.0196 219.474 97.0196 219.474V203.013H86.531V241.421L165.065 237.964C178.306 233.191 191.417 238.678 204.213 238.568C206.337 238.678 208.225 238.678 209.825 238.678H215.017L235.994 214.344V212.259C230.75 194.756 230.75 178.295 235.915 160.984C235.968 159.53 235.994 158.186 235.994 156.869V108.338C235.994 106.801 235.994 105.293 235.994 103.784C235.994 95.9924 235.994 90.5056 235.994 82.6045C235.994 81.3151 235.994 80.0257 235.994 78.7912V49.3542V49.3817ZM210.716 79.8611C210.48 80.9585 210.375 81.6443 210.375 81.6443C205.236 80.8487 200.542 81.5346 196.163 82.9337C194.695 83.4001 193.279 83.9488 191.889 84.5523C190.499 85.1559 189.11 85.8143 187.772 86.5002C186.435 87.186 185.098 87.8993 183.787 88.6126C181.165 90.0392 178.621 91.4932 176.104 92.7277C174.399 93.3038 172.721 93.8525 171.096 94.264C164.54 95.965 158.64 95.965 154.707 90.4781C149.463 82.2479 149.463 65.7873 154.707 60.3005C157.329 54.8137 170.44 57.5571 179.618 57.5845C180.929 57.5845 182.24 57.5845 183.551 57.6119C184.862 57.6119 186.173 57.6119 187.484 57.5845C196.662 57.5845 207.15 54.8137 215.017 60.3005C217.639 63.0439 215.017 74.0176 210.716 79.8062V79.8611Z" fill="#FFA92E"/>
<path d="M1097.87 488.329H952.341V510.084C952.341 531.84 952.341 557.93 952.341 579.438C952.341 581.852 952.341 585.117 952.341 588.382V601.44H985.458C988.893 601.44 992.171 601.44 994.583 601.276C1014.72 601.44 1023.03 566.626 1043.83 575.323C1060.45 588.382 1068.76 605.775 1065.38 626.543C1065.22 629.56 1065.04 632.578 1064.88 635.541C1064.73 638.504 1064.62 641.412 1064.62 644.21V655.925C1064.59 658.01 1064.49 660.561 1064.46 662.701C1068.76 692.769 1068.76 718.859 1064.52 747.363C1064.57 749.667 1064.59 751.697 1064.59 753.234V758.035H1059.01C1057.25 758.035 1055.16 758.035 1052.8 758.035C1023.01 745.004 993.902 740.642 967.339 760.559C964.638 761.3 961.964 761.876 959.289 762.369C938.024 766.402 917.44 765.003 894.391 758.035C891.821 758.035 889.487 758.035 887.416 758.035C881.228 758.035 877.478 758.035 877.478 758.035V731.945H860.854V792.849L985.38 787.362C1006.38 779.79 1027.15 788.487 1047.47 788.322C1050.85 788.487 1053.84 788.487 1056.39 788.487H1064.59L1097.87 749.914V746.622C1089.56 718.886 1089.56 692.769 1097.74 665.335C1097.82 663.058 1097.87 660.863 1097.87 658.805V581.852C1097.87 579.438 1097.87 577.024 1097.87 574.637C1097.87 562.264 1097.87 553.568 1097.87 541.058C1097.87 539 1097.87 536.97 1097.87 534.995V488.329ZM1057.78 536.668C1057.41 538.397 1057.23 539.494 1057.23 539.494C1049.07 538.259 1041.65 539.302 1034.7 541.524C1032.39 542.265 1030.11 543.143 1027.91 544.103C1025.68 545.063 1023.53 546.106 1021.38 547.203C1019.26 548.3 1017.13 549.425 1015.06 550.577C1010.92 552.854 1006.88 555.159 1002.9 557.107C1000.19 558.039 997.546 558.89 994.951 559.548C984.567 562.264 975.206 562.264 968.965 553.568C960.653 540.509 960.653 514.419 968.965 505.722C973.134 497.026 993.902 501.36 1008.48 501.415C1010.55 501.415 1012.62 501.415 1014.7 501.47C1016.77 501.47 1018.86 501.443 1020.91 501.415C1035.49 501.388 1052.11 497.026 1064.59 505.722C1068.76 510.084 1064.6 527.478 1057.75 536.668H1057.78Z" fill="#FFA92E"/>
<path d="M809.905 172.424L756.754 148.529L577.398 67.927L565.363 97.2542L563.134 102.686C548.869 137.445 531.747 179.145 517.666 213.493C516.066 217.361 513.916 222.574 511.766 227.786L503.218 248.636C503.218 248.636 514.414 253.684 531.249 261.228C534.054 262.49 537.017 263.807 540.085 265.206C544.91 267.374 550.626 269.953 556.107 272.422C561.587 274.891 566.831 277.25 570.791 278.704C602.86 293.409 638.967 243.808 666.473 272.614C684.487 305.398 686.349 339.169 667.312 369.923C665.11 374.614 662.802 379.305 660.626 383.969C658.449 388.578 656.325 393.16 654.516 397.604L650.635 407.041L646.807 416.341C645.391 419.634 643.529 423.639 642.113 427.041C629.265 478.178 612.142 519.878 586.681 562.319C585.239 566.023 583.98 569.287 582.984 571.756L579.837 579.438L570.922 575.432C568.142 574.171 564.786 572.662 561.01 570.961C521.992 528.739 478.333 500.894 422.849 513.623C418.024 512.855 413.383 511.867 408.794 510.77C372.162 501.936 340.198 484.927 307.946 457.218C303.829 455.38 300.106 453.707 296.802 452.225C286.89 447.781 280.911 445.093 280.911 445.093L298.034 403.393L271.472 391.459L254.349 433.159L248.633 447.068C242.235 462.678 232.716 485.805 231.51 488.768L434.071 569.424C472.565 572.415 500.071 601.248 532.612 615.541C537.883 618.23 542.681 620.397 546.719 622.208C554.795 625.829 559.856 628.106 559.856 628.106L638.311 590.384L640.461 585.117C645.365 534.83 662.487 493.13 693.586 455.161C695.212 451.567 696.706 448.138 698.07 444.818C714.406 405.039 732.132 361.885 748.546 321.885C750.146 318.017 751.719 314.176 753.266 310.363C761.395 290.61 767.085 276.729 775.292 256.729C776.656 253.437 777.967 250.2 779.278 247.045C797.45 202.766 809.905 172.479 809.905 172.479V172.424ZM714.144 220.873C712.413 223.369 711.443 224.988 711.443 224.988C699.25 217.142 686.664 213.52 674.103 212.066C669.908 211.6 665.739 211.353 661.57 211.298C657.4 211.243 653.231 211.353 649.114 211.545C644.998 211.765 640.881 212.066 636.816 212.396C628.688 213.054 620.743 213.822 613.086 214.096C608.183 213.63 603.384 213.081 598.795 212.313C580.44 209.213 565.494 202.492 561.22 184.111C556.5 157.28 573.623 115.58 592.607 107.652C604.957 96.7329 635.322 118.625 658.554 129.133C661.858 130.642 665.162 132.15 668.466 133.659C671.796 135.113 675.126 136.595 678.43 138.049C701.715 148.446 731.162 153.439 745.374 176.292C749.15 186.223 731.109 211.051 714.17 220.818L714.144 220.873Z" fill="#FFA92E"/>
<path d="M1463.37 233.41V208.363V123.783C1463.37 123.783 1454.96 123.783 1450.73 123.783H1448.4C1433.43 123.783 1415.47 123.783 1400.68 123.783C1399 123.783 1396.77 123.783 1394.51 123.783C1390.03 123.783 1385.52 123.783 1385.52 123.783V137.006C1385.52 138.323 1385.52 139.722 1385.52 141.176V148.721C1385.52 151.3 1385.52 153.769 1385.63 155.579C1385.52 170.751 1409.46 177.006 1403.48 192.67C1394.49 205.208 1382.53 211.463 1368.24 208.912C1366.17 208.802 1364.1 208.665 1362.05 208.527C1360.01 208.418 1358.01 208.335 1356.1 208.335H1352.04C1350.72 208.335 1349.39 208.335 1348.02 208.335C1346.61 208.335 1344.82 208.226 1343.36 208.226C1322.67 211.463 1304.71 211.463 1285.09 208.281C1283.49 208.308 1282.13 208.335 1281.05 208.335H1277.75C1277.75 208.335 1277.75 206.772 1277.75 204.138C1277.75 202.821 1277.75 201.23 1277.75 199.447C1286.72 177.006 1289.71 155.086 1276.02 135.086C1275.52 133.028 1275.1 131.026 1274.76 129.023C1271.98 113.001 1272.95 97.5012 1277.75 80.1353C1277.75 78.2149 1277.75 76.4317 1277.75 74.8954C1277.75 70.2316 1277.75 67.4058 1277.75 67.4058H1295.71V54.8684H1277.75C1277.07 54.8684 1274.73 54.8684 1271.77 54.8684C1265.06 54.8684 1255.07 54.8684 1253.81 54.8684L1257.59 148.693C1262.8 164.496 1256.8 180.16 1256.93 195.469C1256.83 198.02 1256.83 200.27 1256.83 202.163V208.363L1283.36 233.41H1285.62C1304.71 227.155 1322.67 227.155 1341.57 233.328C1343.15 233.383 1344.64 233.41 1346.06 233.41C1363.18 233.41 1381.8 233.41 1399 233.41C1400.68 233.41 1402.33 233.41 1403.95 233.41C1412.45 233.41 1418.45 233.41 1427.06 233.41C1428.47 233.41 1429.86 233.41 1431.22 233.41C1450.29 233.41 1463.35 233.41 1463.35 233.41H1463.37ZM1430.1 203.205C1428.92 202.931 1428.16 202.794 1428.16 202.794C1429.02 196.648 1428.29 191.052 1426.74 185.812C1426.24 184.056 1425.64 182.355 1424.98 180.682C1424.33 179.008 1423.59 177.362 1422.86 175.771C1422.1 174.152 1421.34 172.589 1420.55 171.025C1418.98 167.897 1417.41 164.852 1416.04 161.862C1415.41 159.832 1414.81 157.829 1414.36 155.881C1412.5 148.062 1412.5 141.012 1418.48 136.321C1427.47 130.066 1445.44 130.066 1451.42 136.321C1457.39 139.448 1454.4 155.113 1454.38 166.087C1454.38 167.65 1454.38 169.214 1454.35 170.778C1454.35 172.342 1454.35 173.905 1454.38 175.469C1454.38 186.443 1457.39 198.98 1451.42 208.363C1448.43 211.49 1436.44 208.363 1430.12 203.205H1430.1Z" fill="#FFA92E"/>
<path d="M270.082 315.493H361.857V301.776C361.857 288.059 361.857 271.599 361.857 258.046C361.857 256.51 361.857 254.452 361.857 252.395V244.164H340.985C338.809 244.164 336.763 244.164 335.243 244.274C322.551 244.164 317.307 266.112 304.196 260.625C293.708 252.395 288.463 241.421 290.614 228.307C290.718 226.414 290.823 224.494 290.928 222.629C291.033 220.763 291.085 218.925 291.085 217.169V209.789C291.085 208.472 291.164 206.854 291.19 205.51C288.463 186.553 288.463 170.092 291.138 152.123C291.112 150.669 291.085 149.407 291.085 148.419V145.401H294.599C295.7 145.401 297.038 145.401 298.506 145.401C317.281 153.631 335.636 156.375 352.391 143.81C354.096 143.344 355.774 142.987 357.452 142.658C370.878 140.106 383.857 141.012 398.384 145.401C400.01 145.401 401.478 145.401 402.789 145.401C406.696 145.401 409.056 145.401 409.056 145.401V161.862H419.545V123.454L341.011 126.911C327.769 131.684 314.659 126.197 301.863 126.307C299.739 126.197 297.851 126.197 296.251 126.197H291.059L270.082 150.531V152.616C275.326 170.119 275.326 186.58 270.161 203.891C270.108 205.345 270.082 206.689 270.082 208.006V256.537C270.082 258.074 270.082 259.582 270.082 261.091C270.082 268.883 270.082 274.369 270.082 282.27C270.082 283.56 270.082 284.849 270.082 286.084V315.521V315.493ZM295.36 285.014C295.596 283.917 295.7 283.231 295.7 283.231C300.84 284.026 305.534 283.34 309.913 281.941C311.381 281.475 312.797 280.926 314.187 280.323C315.576 279.719 316.966 279.061 318.303 278.375C319.641 277.689 320.978 276.976 322.289 276.262C324.911 274.836 327.455 273.382 329.972 272.147C331.676 271.571 333.355 271.022 334.98 270.611C341.536 268.91 347.436 268.91 351.369 274.397C356.613 282.627 356.613 299.088 351.369 304.574C348.747 310.061 335.636 307.318 326.458 307.29C325.147 307.29 323.836 307.29 322.525 307.263C321.214 307.263 319.903 307.263 318.592 307.29C309.414 307.29 298.926 310.061 291.059 304.574C288.437 301.831 291.059 290.857 295.36 285.069V285.014Z" fill="#FFA92E"/>
<path d="M936.712 51.6038L922.946 66.0067L876.455 114.648C876.455 114.648 881.306 119.723 883.718 122.247L885.056 123.646C893.656 132.644 903.988 143.453 912.51 152.37C913.454 153.385 914.765 154.729 916.05 156.073L921.215 161.478L928.479 153.878L930.76 151.492L934.903 147.157C936.319 145.676 937.682 144.249 938.626 143.152C947.017 134.483 936.686 116.486 948.748 111.081C960.81 109.27 971.141 112.892 977.959 122.96C979.086 124.277 980.214 125.594 981.315 126.911C982.416 128.2 983.544 129.462 984.645 130.614L986.979 133.056L989.286 135.47C990.099 136.348 991.069 137.445 991.909 138.351C1005.6 148.94 1015.93 159.749 1025.45 173.384C1026.36 174.317 1027.2 175.14 1027.81 175.771L1029.69 177.746L1027.39 180.16C1026.65 180.929 1025.79 181.834 1024.82 182.849C1007.33 190.366 993.561 201.148 990.44 220.9C989.601 222.382 988.736 223.781 987.844 225.153C980.633 236.044 971.561 244.384 959.237 251.462C958.188 252.587 957.217 253.602 956.352 254.48C953.782 257.168 952.235 258.787 952.235 258.787L941.904 247.978L935.008 255.193L945.339 266.002L948.774 269.596C952.629 273.629 958.371 279.637 959.105 280.405L1008.51 224.192C1014.2 211.957 1026.26 206.552 1034.6 197.691C1036.07 196.292 1037.3 195.002 1038.35 193.905L1041.76 190.339L1040.26 159.969L1038.95 158.597C1024.53 150.724 1014.2 139.914 1006.72 124.99C1005.86 124.003 1005.02 123.097 1004.18 122.219C994.321 111.904 983.623 100.711 973.737 90.3683C972.767 89.3532 971.823 88.3656 970.879 87.378C966.002 82.2478 962.54 78.6539 957.585 73.4688C956.772 72.6184 955.959 71.7679 955.172 70.9449L936.712 51.6312V51.6038ZM939.256 88.9692C939.78 89.847 940.147 90.3683 940.147 90.3683C936.293 93.3861 933.618 97.0348 931.625 100.985C930.97 102.302 930.367 103.646 929.816 104.991C929.265 106.335 928.793 107.734 928.348 109.106C927.902 110.478 927.482 111.877 927.063 113.221C926.25 115.964 925.489 118.653 924.598 121.204C923.837 122.741 923.077 124.25 922.29 125.676C919.065 131.3 915.184 135.36 909.18 134.455C900.579 132.644 890.248 121.835 890.248 114.648C888.517 109.243 898.848 102.028 904.905 95.7454C905.771 94.8675 906.636 93.9622 907.501 93.0568C908.367 92.1515 909.206 91.2462 910.071 90.3409C916.076 84.0036 921.241 75.0051 929.868 73.1945C933.303 73.1945 938.469 82.1929 939.282 88.9692H939.256Z" fill="#FFA92E"/>
<path d="M1157.68 348.25V613.676H1193.92C1230.16 613.676 1273.66 613.676 1309.48 613.676C1313.52 613.676 1318.94 613.676 1324.4 613.676H1346.14V553.293C1346.14 547.038 1346.14 541.058 1345.87 536.668C1346.14 499.934 1288.16 484.763 1302.66 446.849C1324.4 416.506 1353.4 401.335 1388.01 407.535C1393.02 407.81 1398.05 408.166 1403.01 408.441C1407.94 408.715 1412.82 408.934 1417.46 408.934H1436.99C1440.45 408.989 1444.73 409.181 1448.27 409.209C1498.35 401.335 1541.85 401.335 1589.31 409.099C1593.14 409.017 1596.53 408.934 1599.1 408.934H1607.09V419.113C1607.09 422.295 1607.09 426.136 1607.09 430.443C1585.36 484.763 1578.12 537.848 1611.29 586.297C1612.52 591.235 1613.49 596.118 1614.33 600.974C1621.04 639.766 1618.71 677.296 1607.09 719.353C1607.09 724.044 1607.09 728.296 1607.09 732.082C1607.09 743.385 1607.09 750.216 1607.09 750.216H1563.62V780.558H1665.09L1655.94 553.43C1643.33 515.132 1657.83 477.218 1657.54 440.209C1657.81 434.064 1657.83 428.577 1657.83 423.968V408.989L1593.56 348.332H1588.08C1541.85 363.503 1498.38 363.503 1452.62 348.552C1448.82 348.415 1445.2 348.332 1441.74 348.332H1313.54C1309.5 348.332 1305.49 348.332 1301.51 348.332C1280.9 348.332 1266.42 348.332 1245.58 348.332C1242.14 348.332 1238.76 348.332 1235.48 348.332H1157.71L1157.68 348.25ZM1238.23 421.362C1241.09 422.021 1242.93 422.35 1242.93 422.35C1240.86 437.219 1242.61 450.772 1246.34 463.446C1247.57 467.671 1249.01 471.786 1250.61 475.846C1252.21 479.879 1253.94 483.857 1255.78 487.753C1257.59 491.649 1259.5 495.489 1261.39 499.275C1265.19 506.847 1269.02 514.2 1272.3 521.47C1273.84 526.38 1275.26 531.236 1276.39 535.955C1280.92 554.884 1280.92 571.949 1266.42 583.334C1244.68 598.505 1201.18 598.505 1186.68 583.334C1172.18 575.762 1179.45 537.82 1179.5 511.264C1179.5 507.506 1179.55 503.72 1179.58 499.906C1179.55 496.12 1179.52 492.334 1179.5 488.549C1179.45 461.992 1172.18 431.65 1186.68 408.907C1193.92 401.335 1222.92 408.907 1238.23 421.362Z" fill="#FFA92E"/>
<path d="M124.474 423.776H197.186V412.912C197.186 402.048 197.186 388.99 197.186 378.263C197.186 377.056 197.186 375.41 197.186 373.791V367.262H180.64C178.936 367.262 177.284 367.262 176.078 367.344C166.009 367.262 161.866 384.655 151.482 380.32C143.17 373.791 139.027 365.094 140.705 354.724C140.783 353.215 140.862 351.706 140.941 350.225C141.019 348.744 141.072 347.29 141.072 345.89V340.019C141.072 338.977 141.15 337.715 141.15 336.645C139 321.611 139 308.58 141.124 294.341C141.124 293.189 141.072 292.174 141.072 291.406V289.019H143.851C144.717 289.019 145.765 289.019 146.945 289.019C161.839 295.549 176.366 297.716 189.634 287.757C190.998 287.401 192.335 287.099 193.646 286.852C204.266 284.849 214.571 285.535 226.082 289.019C227.367 289.019 228.521 289.019 229.57 289.019C232.664 289.019 234.552 289.019 234.552 289.019V302.051H242.864V271.626L180.64 274.369C170.152 278.155 159.768 273.793 149.62 273.876C147.942 273.793 146.447 273.793 145.162 273.793H141.046L124.421 293.08V294.726C128.564 308.58 128.564 321.639 124.474 335.356C124.421 336.508 124.421 337.578 124.421 338.62V377.083C124.421 378.29 124.421 379.497 124.421 380.677C124.421 386.85 124.421 391.212 124.421 397.467C124.421 398.509 124.421 399.497 124.421 400.484V423.804L124.474 423.776ZM144.507 399.607C144.69 398.756 144.769 398.207 144.769 398.207C148.833 398.838 152.557 398.29 156.018 397.192C157.172 396.808 158.299 396.397 159.427 395.903C160.528 395.437 161.63 394.888 162.678 394.367C163.753 393.818 164.802 393.242 165.825 392.693C167.896 391.541 169.916 390.416 171.908 389.428C173.246 388.962 174.583 388.551 175.868 388.194C181.06 386.822 185.727 386.822 188.847 391.184C192.99 397.714 192.99 410.745 188.847 415.107C186.776 419.441 176.392 417.274 169.103 417.274C168.08 417.274 167.031 417.274 165.982 417.274C164.933 417.274 163.911 417.274 162.862 417.274C155.572 417.274 147.26 419.469 141.046 415.107C138.974 412.94 141.046 404.243 144.454 399.634L144.507 399.607Z" fill="#FFA92E"/>
<path d="M793.123 503.336H865.836V492.472C865.836 481.608 865.836 468.549 865.836 457.822C865.836 456.615 865.836 454.969 865.836 453.351V446.821H849.29C847.585 446.821 845.933 446.821 844.727 446.904C834.658 446.821 830.515 464.215 820.131 459.88C811.819 453.351 807.676 444.654 809.354 434.284C809.433 432.775 809.512 431.266 809.59 429.785C809.669 428.303 809.721 426.849 809.721 425.45V419.579C809.721 418.537 809.8 417.275 809.8 416.205C807.65 401.171 807.65 388.139 809.774 373.901C809.774 372.749 809.721 371.734 809.721 370.966V368.579H812.501C813.366 368.579 814.415 368.579 815.595 368.579C830.489 375.108 845.016 377.275 858.284 367.317C859.647 366.96 860.985 366.658 862.296 366.412C872.915 364.409 883.22 365.095 894.732 368.579C896.017 368.579 897.17 368.579 898.219 368.579C901.313 368.579 903.201 368.579 903.201 368.579V381.61H911.513V351.186L849.29 353.929C838.801 357.715 828.417 353.353 818.27 353.435C816.591 353.353 815.097 353.353 813.812 353.353H809.695L793.071 372.639V374.285C797.214 388.139 797.214 401.198 793.123 414.915C793.071 416.067 793.071 417.137 793.071 418.18V456.643C793.071 457.85 793.071 459.057 793.071 460.237C793.071 466.409 793.071 470.771 793.071 477.026C793.071 478.069 793.071 479.056 793.071 480.044V503.363L793.123 503.336ZM813.156 479.166C813.34 478.316 813.419 477.767 813.419 477.767C817.483 478.398 821.206 477.849 824.668 476.752C825.821 476.368 826.949 475.956 828.077 475.463C829.178 474.996 830.279 474.447 831.328 473.926C832.403 473.378 833.452 472.801 834.475 472.253C836.546 471.101 838.565 469.976 840.558 468.988C841.895 468.522 843.233 468.11 844.517 467.754C849.709 466.382 854.377 466.382 857.497 470.744C861.64 477.273 861.64 490.304 857.497 494.666C855.426 499.001 845.042 496.834 837.752 496.834C836.73 496.834 835.681 496.834 834.632 496.834C833.583 496.834 832.56 496.834 831.512 496.834C824.222 496.834 815.91 499.029 809.695 494.666C807.624 492.499 809.695 483.803 813.104 479.194L813.156 479.166Z" fill="#FFA92E"/>
</g>
<defs>
<clipPath id="clip0_98_833">
<rect width="1728" height="834" fill="white"/>
</clipPath>
</defs>
</svg>
