<svg width="792" height="575" viewBox="0 0 792 575" fill="none" xmlns="http://www.w3.org/2000/svg">
<path d="M792 0H0V575H792V0Z" fill="#00002E"/>
<path d="M606.911 259.527C605.786 258.121 604.734 256.835 603.848 255.716C593.679 244.855 584.107 261.527 574.536 261.527C567.357 259.145 560.179 256.764 553 252C553 261.527 553 273.436 553 282.392C553 283.559 553 284.75 553 285.965V383H562.571C562.571 383 560.179 322.645 560.179 309.164C560.179 290.109 598.464 302.018 598.464 302.018L600.857 383H620V275.818L606.911 259.527Z" fill="#FFA92E"/>
<path d="M525 243.75C520.274 240.932 519.03 238.932 520.895 238.364C517.189 234.545 516.592 232.205 516.99 228.545C514.602 229.341 513.234 228.818 508.955 228C509.08 231.114 508.234 232.614 505 234.545C508.259 236.091 509.08 238.045 509.254 242.682C512.413 241.295 514.9 242.591 519.776 246C520.323 242.409 522.562 241.659 525 243.727V243.75Z" fill="#FFA92E"/>
<path d="M520.2 287.714L519.696 252H513V309.119C513 309.476 513 309.833 513 310.19C513 313.905 520.2 316.286 513 321.81C513 322.286 513 322.762 513 323.238C513 331.786 513 340.071 513 348.429C513 348.905 513 349.357 513 349.833C515.4 354.405 517.8 356.786 513.072 361.095C513 361.571 513 362.048 513 362.524C513 364.571 513 366.5 513 368.31V383H525V367.381C525 366.333 525 365.262 524.952 364.143C524.544 362.667 524.16 361.19 523.8 359.738C523.68 359.262 523.584 358.762 523.464 358.286C522.6 356.81 522.6 354.429 522.168 351.214C522.096 350.738 522.048 350.286 521.976 349.833C520.824 340.571 521.328 331.714 523.488 322.333C523.584 321.857 523.704 321.405 523.824 320.929C524.976 318.738 524.976 313.976 524.976 311.595V283.024L520.176 287.786L520.2 287.714Z" fill="#FFA92E"/>
<path d="M209.797 273.926C206.953 263.017 198.276 257.277 193.209 247.79C193.758 237.521 205.781 235.837 209.63 226.777C210.323 225.117 209.821 223.267 209.869 221.251C210.036 215.18 209.869 218.334 209.917 209.417C209.964 200.499 209.917 175.027 209.917 164.687C209.917 161.722 209.917 160.726 209.917 160.584C209.917 160.916 209.917 164.592 209.917 158.236C209.917 148.536 209.917 133.215 209.917 122.376C204.347 121.878 198.754 122.21 193.209 122.115C192.802 119.696 193.95 117.372 192.348 115C172.031 115 132.83 115 116.959 115C101.087 115 108.234 115 97 115C98.0995 204.318 97.4542 293.659 97.2629 383C105.701 383 103.669 383 114.784 383C125.898 383 150.375 383 164.023 383C164.932 377.474 164.286 371.948 164.501 366.422C179.632 366.232 194.762 366.778 209.893 366.019C209.893 358.097 209.893 341.472 209.893 335.543V332.033C209.893 331.985 209.893 331.819 209.893 331.108C209.893 328.617 209.893 329.258 209.893 326.815C209.893 315.265 209.845 302.742 209.749 291.026C209.749 289.84 209.869 288.631 209.869 287.753C209.869 285.121 209.94 281.35 209.869 279.239C209.797 277.128 210.132 275.349 209.773 273.998L209.797 273.926ZM112.369 179.367C114.306 167.343 118.632 161.366 131.779 160.418C151.14 159.018 173.178 160.631 193.017 159.991C189.767 165.398 184.388 170.735 181.401 176.023C177.337 183.21 177.504 187.668 181.831 194.641C184.723 199.29 189.838 203.962 193.137 208.61C192.826 210.768 191.774 211.812 189.575 212.168C188.906 212.286 187.926 212.097 187.257 212.192C185.058 212.595 184.03 213.567 183.671 215.773C183.552 216.437 183.695 217.409 183.671 218.073C183.624 218.737 183.719 219.307 183.671 219.947C183.48 221.489 182.811 222.437 181.448 223.22L162.302 224.05C161.131 223.955 160.318 224.121 159.028 224.05C150.494 223.504 139.762 224.88 131.611 223.765C119.349 222.081 113.804 216.769 112.417 204.673C111.533 197.155 111.222 186.815 112.417 179.344L112.369 179.367ZM195.551 274.021C195.551 274.733 195.551 276.725 195.551 277.863C195.551 279.025 195.551 280.781 195.503 282.038C189.695 298.426 188.428 311.043 195.479 327.242C194.834 329.281 194.404 330.633 191.846 330.704C184.149 330.942 175.855 330.633 168.182 330.847C165.649 330.918 165.075 332.317 164.454 334.333C163.832 336.349 163.163 337.891 160.725 337.819C151.546 337.487 140.192 338.768 131.468 337.606C119.11 335.946 113.517 330.704 112.154 318.467C111.15 309.454 111.15 297.43 112.154 288.417C113.541 276.156 119.062 270.962 131.468 269.396C140.766 268.211 152.813 269.752 162.446 269.183C163.88 269.088 164.908 269.23 166.007 269.207C169.067 269.159 172.126 269.207 175.019 269.207C176.453 269.207 178.341 269.207 179.321 269.207C181.305 269.207 181.879 269.207 183.695 269.207C185.512 269.207 187.615 269.207 189.623 269.207C190.627 269.207 192.539 269.207 193.495 269.207C194.452 269.207 194.714 269.207 195.527 269.159C195.479 270.962 195.527 272.005 195.527 274.069L195.551 274.021Z" fill="#FFA92E"/>
<path d="M306.976 252.106C300.579 251.965 294.159 251.965 287.786 252.106C291.528 261.583 294.497 274.713 294.859 284.001C295.269 295.175 293.821 302.648 292.493 312.714C291.31 321.672 289.548 329.899 287.69 338.692C277.19 338.621 266.786 338.739 256.286 338.621C252.207 331.761 248.055 322.732 246.776 315.307C244.072 299.583 246.486 285.816 246.655 270.093C246.703 266.345 246.728 260.31 246.655 256.184C243.445 254.723 240.21 253.426 237 252.012C237 268.985 237 285.533 237 302.695C237 303.52 237 305.029 237 306.514C237 313.798 237.024 322.096 237.145 329.474C237.145 330.724 237 332.398 237 333.175C237 347.791 237 361.864 237 376.291C241.803 376.291 246.607 376.291 251.41 376.291C251.41 378.861 251.41 381.43 251.41 384C264.686 384 277.938 384 291.214 384C291.214 381.43 291.214 378.861 291.214 376.291C296.476 376.291 301.738 376.291 307 376.291C307 351.539 307 327.4 307 302.341C307 301.422 307 300.738 307 298.428C306.928 286.547 306.976 273.817 307 260.875C307 259.744 307 253.851 307 252.059L306.976 252.106Z" fill="#FFA92E"/>
<path d="M356.65 269.735C367.102 269.735 377.506 269.735 387.982 269.735C387.789 266.896 388.199 264.32 387.861 261.41C387.283 256.472 383.527 253.276 378.373 253.109C371.028 252.87 355.687 253.109 350.557 253.037C345.428 252.99 352.46 253.037 348.944 253.037C345.428 253.037 339.214 253.037 335.048 253.037C334.952 298.358 335.048 343.679 335 389C343.02 389 351.063 389 359.083 389C349.498 367.962 343.935 347.782 342.321 324.43C341.55 313.076 342.899 300.314 344.633 288.817C348.679 282.377 352.677 276.079 356.698 269.711L356.65 269.735Z" fill="#FFA92E"/>
<path d="M464.906 259.552C464.021 258.48 462.944 256.622 461.842 255.812C450.592 247.45 443.794 259.171 432.543 261.529C424.955 259.004 417.822 256.217 411 252C411 262.077 411 272.344 411 282.326C411 283.636 411 284.899 411 285.899C411 318.37 411 350.625 411 383L420.359 382.333C421.125 363.203 416.482 327.231 418.732 310.913C421.915 287.829 444.344 301.67 456.385 301.741C457.366 329.304 458.013 355.842 458.85 383C465.218 383 471.609 383 478 383C478 347.266 478 311.532 478 275.799C473.572 270.391 469.359 264.912 464.858 259.528L464.906 259.552Z" fill="#FFA92E"/>
<path d="M722 258.024H638.491V269.879C638.491 281.735 638.491 295.961 638.491 307.674C638.491 309.002 638.491 310.78 638.491 312.559V319.672H657.483C659.464 319.672 661.325 319.672 662.709 319.577C674.257 319.672 679.029 300.703 690.959 305.445C700.502 312.559 705.274 322.043 703.318 333.377C703.222 335.013 703.127 336.673 703.032 338.285C702.936 339.897 702.888 341.486 702.888 343.004V349.382C702.888 350.52 702.817 351.919 702.793 353.081C705.274 369.465 705.274 383.691 702.841 399.222C702.865 400.479 702.888 401.569 702.888 402.423V405.031H699.691C698.689 405.031 697.472 405.031 696.136 405.031C679.053 397.918 662.351 395.547 647.105 406.407C645.554 406.81 644.027 407.118 642.5 407.402C630.283 409.607 618.473 408.825 605.255 405.031C603.775 405.031 602.439 405.031 601.246 405.031C597.691 405.031 595.544 405.031 595.544 405.031V390.805H586V424L657.46 421.012C669.509 416.887 681.439 421.629 693.082 421.534C695.015 421.629 696.733 421.629 698.188 421.629H702.912L722 400.597V398.795C717.228 383.668 717.228 369.441 721.928 354.48C721.976 353.223 722 352.061 722 350.923V308.978C722 307.651 722 306.347 722 305.042C722 298.309 722 293.566 722 286.738C722 285.623 722 284.509 722 283.442V258V258.024ZM698.999 284.367C698.785 285.315 698.689 285.908 698.689 285.908C694.013 285.22 689.742 285.813 685.757 287.022C684.421 287.425 683.133 287.899 681.868 288.421C680.603 288.943 679.339 289.512 678.122 290.105C676.905 290.697 675.688 291.314 674.495 291.93C672.109 293.163 669.795 294.42 667.505 295.487C665.954 295.985 664.427 296.459 662.947 296.815C656.982 298.285 651.614 298.285 648.035 293.543C643.263 286.429 643.263 272.203 648.035 267.461C650.421 262.718 662.351 265.09 670.702 265.113C671.895 265.113 673.088 265.113 674.281 265.137C675.474 265.137 676.667 265.137 677.86 265.113C686.211 265.113 695.754 262.718 702.912 267.461C705.298 269.832 702.912 279.316 698.999 284.319V284.367Z" fill="#FFA92E"/>
</svg>
