<svg width="440" height="505" viewBox="0 0 440 505" fill="none" xmlns="http://www.w3.org/2000/svg">
<g clip-path="url(#clip0_98_830)">
<path d="M440 0H0V505H440V0Z" fill="#00002E"/>
<path d="M106.518 74.6096V71.085H66.5037H59.437V203.999H92.3852V195.765H114.741V152.314C114.741 151.352 114.741 150.508 114.726 149.797C114.741 144.006 107.689 141.652 106.504 136.957C104.148 132.248 114.741 132.248 114.667 126.62C114.726 125.598 114.726 124.606 114.726 123.732V74.6244H106.489L106.518 74.6096ZM105.926 178.127H94.1629C93.1852 178.127 92.4 178.912 92.4 179.89C92.4 180.867 91.6148 181.652 90.637 181.652H75.9259C70.7259 181.652 66.5185 177.446 66.5185 172.248V156.95C66.5185 151.752 70.7259 147.546 75.9259 147.546H104.756C105.496 147.546 106.222 147.546 106.77 147.546C107.318 147.546 107.689 147.546 107.689 147.546C107.689 147.546 107.689 148.405 107.689 149.812V176.365C107.689 177.342 106.904 178.127 105.926 178.127ZM91.2741 125.198C90.7703 125.198 90.2666 125.198 89.7481 125.198H75.9259C70.7259 125.198 66.5185 120.993 66.5185 115.794V102.851C66.5185 97.653 70.7259 93.4471 75.9259 93.4471H106.518V117.557C106.518 118.534 105.733 119.319 104.756 119.319H103.585C102.607 119.319 101.822 120.104 101.822 121.081V122.251C101.822 122.562 101.822 122.873 101.822 123.17C101.822 123.88 101.393 124.547 100.726 124.784" fill="#FFA92E"/>
<path d="M161.822 139.016H152.459V182.126H137.067V139.016H127.704V201.037H134.726V204.888H154.133V201.037H161.822V139.016Z" fill="#FFA92E"/>
<path d="M194.459 156.535L200.874 153.07L194.741 143.148C194.637 140.837 192.607 139.001 190.118 139.001H168.874V206.043H175.941V148.894H189.733L194.459 156.535Z" fill="#FFA92E"/>
<path d="M59.4517 204.888H390.104" stroke="white" stroke-miterlimit="10"/>
<path d="M59.4517 137.55H390.104" stroke="white" stroke-miterlimit="10"/>
<path d="M208.889 203.718V139.016H232.429L241.837 150.774V203.703H232.429V157.824C232.429 157.824 221.837 153.114 217.126 157.824C212.415 162.533 213.6 203.703 213.6 203.703" fill="#FFA92E"/>
<path d="M274.785 203.718V139.016H298.326L307.733 150.774V203.703H298.326V157.824C298.326 157.824 287.733 153.114 283.022 157.824C278.311 162.533 279.496 203.703 279.496 203.703" fill="#FFA92E"/>
<path d="M257.219 122.245L252.997 123.812L255.857 131.517L260.08 129.951L257.219 122.245Z" fill="#FFA92E"/>
<path d="M261.2 153.233L258.074 139.016H254.785V203.718H261.837V152.833L261.2 153.233Z" fill="#FFA92E"/>
<path d="M350.104 140.186H318.326V170.767H350.104V213.107H327.748V206.043H323.037V221.341H350.104L359.511 210.915V140.186H350.104ZM350.104 163.718H321.867V147.25H350.104V163.718Z" fill="#FFA92E"/>
<path d="M307.185 362.697C306.637 362.001 306.118 361.364 305.674 360.816C300.667 355.455 295.97 363.689 291.259 363.689C287.733 362.519 284.192 361.334 280.667 358.979C280.667 363.689 280.667 369.568 280.667 373.981C280.667 374.559 280.667 375.151 280.667 375.744V423.667H285.378C285.378 423.667 284.207 393.856 284.207 387.206C284.207 377.802 303.037 383.682 303.037 383.682L304.207 423.682H313.615V370.753L307.185 362.711V362.697Z" fill="#FFA92E"/>
<path d="M266.237 351.797C264 350.346 263.407 349.294 264.296 349.013C262.548 347.043 262.267 345.829 262.459 343.933C261.333 344.333 260.681 344.081 258.667 343.652C258.726 345.266 258.326 346.051 256.785 347.043C258.326 347.843 258.711 348.85 258.785 351.249C260.281 350.538 261.452 351.205 263.763 352.967C264.03 351.101 265.081 350.731 266.237 351.797Z" fill="#FFA92E"/>
<path d="M264.192 376.617L263.955 358.979H260.667V387.206C260.667 387.384 260.667 387.562 260.667 387.725C260.667 389.561 264.192 390.731 260.667 393.456C260.667 393.693 260.667 393.93 260.667 394.167C260.667 398.387 260.667 402.475 260.667 406.606C260.667 406.829 260.667 407.066 260.667 407.303C261.837 409.568 263.022 410.738 260.711 412.871C260.667 413.108 260.667 413.345 260.667 413.582C260.667 414.589 260.667 415.551 260.667 416.44V423.697H266.548V415.981C266.548 415.463 266.548 414.929 266.518 414.381C266.311 413.641 266.118 412.915 265.955 412.204C265.896 411.967 265.852 411.731 265.792 411.494C265.363 410.768 265.363 409.583 265.155 407.999C265.126 407.762 265.096 407.539 265.067 407.317C264.504 402.741 264.755 398.372 265.807 393.737C265.867 393.5 265.911 393.278 265.97 393.041C266.533 391.96 266.533 389.605 266.533 388.435V374.322L264.178 376.677L264.192 376.617Z" fill="#FFA92E"/>
<path d="M109.985 371.064C108.593 365.658 104.311 362.815 101.822 358.106C102.089 353.011 108.015 352.182 109.911 347.68C110.252 346.865 110 345.932 110.03 344.94C110.104 341.934 110.03 343.504 110.059 339.061C110.089 334.618 110.059 322.015 110.059 316.876C110.059 315.41 110.059 314.907 110.059 314.833C110.059 314.996 110.059 316.817 110.059 313.663C110.059 308.85 110.059 301.252 110.059 295.877C107.319 295.625 104.563 295.803 101.837 295.743C101.644 294.544 102.207 293.389 101.422 292.219C91.4223 292.219 72.1186 292.219 64.2963 292.219C56.4741 292.219 60 292.219 54.4741 292.219C55.0075 336.528 54.6963 380.823 54.6075 425.133C58.7556 425.133 57.763 425.133 63.2297 425.133C68.6963 425.133 80.7556 425.133 87.4667 425.133C87.9112 422.393 87.6 419.654 87.7038 416.899C95.1408 416.81 102.607 417.077 110.059 416.692C110.059 412.767 110.059 404.518 110.059 401.586V399.839C110.059 399.824 110.059 399.735 110.059 399.379C110.059 398.135 110.059 398.461 110.059 397.247C110.059 391.516 110.044 385.311 109.985 379.505C109.985 378.913 110.044 378.321 110.044 377.876C110.044 376.558 110.089 374.707 110.044 373.656C110 372.604 110.178 371.73 110 371.064H109.985ZM62.0149 324.177C62.963 318.209 65.0963 315.247 71.5704 314.773C81.0963 314.077 91.9556 314.877 101.719 314.551C100.119 317.232 97.4667 319.883 96.0001 322.504C94.0001 326.058 94.0741 328.28 96.2075 331.745C97.6297 334.055 100.148 336.366 101.778 338.676C101.615 339.742 101.111 340.26 100.03 340.438C99.7037 340.497 99.2149 340.394 98.8889 340.453C97.8075 340.645 97.3038 341.134 97.1112 342.23C97.0519 342.556 97.1112 343.03 97.1112 343.37C97.0815 343.711 97.1408 343.978 97.1112 344.303C97.0223 345.073 96.6963 345.547 96.0149 345.918L86.5926 346.332C86.0149 346.288 85.6149 346.377 84.9778 346.332C80.7704 346.066 75.4815 346.747 71.4815 346.199C65.4519 345.37 62.726 342.719 62.0297 336.736C61.6 333.004 61.4371 327.88 62.0297 324.163L62.0149 324.177ZM102.978 371.123C102.978 371.479 102.978 372.456 102.978 373.034C102.978 373.611 102.978 374.485 102.963 375.107C100.104 383.237 99.4815 389.487 102.963 397.528C102.652 398.55 102.43 399.217 101.17 399.246C97.3778 399.365 93.3038 399.217 89.526 399.32C88.2667 399.35 88 400.061 87.6889 401.053C87.3926 402.045 87.0519 402.815 85.8519 402.786C81.3334 402.623 75.7482 403.26 71.4371 402.667C65.3482 401.838 62.6075 399.246 61.9408 393.174C61.4519 388.702 61.4371 382.734 61.9408 378.276C62.6223 372.204 65.3482 369.627 71.4371 368.842C76.0149 368.25 81.9408 369.02 86.6963 368.739C87.4075 368.694 87.9112 368.754 88.4593 368.739C89.9704 368.709 91.4815 368.739 92.8889 368.739C93.5852 368.739 94.5334 368.739 95.0075 368.739C95.9852 368.739 96.2667 368.739 97.1556 368.739C98.0593 368.739 99.0815 368.739 100.074 368.739C100.578 368.739 101.511 368.739 101.985 368.739C102.444 368.739 102.593 368.739 102.993 368.724C102.978 369.627 102.993 370.146 102.993 371.153L102.978 371.123Z" fill="#FFA92E"/>
<path d="M158.296 359.32C155.185 359.246 152.044 359.261 148.933 359.32C150.755 364.044 152.207 370.59 152.37 375.24C152.578 380.823 151.866 384.541 151.215 389.561C150.637 394.033 149.778 398.136 148.874 402.519C143.763 402.489 138.696 402.549 133.555 402.49C131.57 399.069 129.541 394.566 128.918 390.864C127.6 383.015 128.785 376.158 128.859 368.309C128.874 366.443 128.904 363.422 128.859 361.364C127.289 360.623 125.718 359.987 124.148 359.276C124.148 367.747 124.148 375.996 124.148 384.57C124.148 384.985 124.148 385.74 124.148 386.481C124.148 390.124 124.163 394.255 124.222 397.943C124.222 398.565 124.148 399.409 124.148 399.794C124.148 407.08 124.148 414.115 124.148 421.312C126.489 421.312 128.829 421.312 131.17 421.312C131.17 422.601 131.17 423.874 131.17 425.163C137.644 425.163 144.103 425.163 150.578 425.163C150.578 423.874 150.578 422.601 150.578 421.312C153.141 421.312 155.704 421.312 158.266 421.312C158.266 408.961 158.266 396.921 158.266 384.422C158.266 383.963 158.266 383.622 158.266 382.467C158.237 376.543 158.252 370.19 158.266 363.719C158.266 363.156 158.266 360.209 158.266 359.32H158.296Z" fill="#FFA92E"/>
<path d="M183.008 367.213C188.104 367.213 193.2 367.213 198.311 367.213C198.208 365.807 198.415 364.548 198.252 363.111C197.971 360.682 196.134 359.098 193.615 359.024C190.03 358.905 182.534 359.024 180.03 358.994C177.526 358.965 180.948 358.994 179.245 358.994C177.526 358.994 174.489 358.994 172.445 358.994C172.4 381.342 172.445 403.689 172.43 426.036C176.356 426.036 180.282 426.036 184.193 426.036C179.497 415.67 176.785 405.703 176 394.196C175.615 388.598 176.282 382.304 177.126 376.647C179.111 373.478 181.052 370.368 183.022 367.228L183.008 367.213Z" fill="#FFA92E"/>
<path d="M236.563 362.712C236.119 362.178 235.6 361.26 235.067 360.875C229.526 356.743 226.193 362.534 220.667 363.689C216.933 362.445 213.422 361.068 210.074 358.994C210.074 363.97 210.074 369.035 210.074 373.967C210.074 374.618 210.074 375.225 210.074 375.729C210.074 391.768 210.074 407.688 210.074 423.682L214.682 423.356C215.067 413.908 212.785 396.151 213.882 388.095C215.437 376.692 226.474 383.534 232.385 383.563C232.859 397.173 233.185 410.279 233.6 423.682C236.741 423.682 239.882 423.682 243.008 423.682C243.008 406.044 243.008 388.391 243.008 370.753C240.83 368.087 238.756 365.377 236.548 362.712H236.563Z" fill="#FFA92E"/>
<path d="M364.222 358.979H323.037V364.859C323.037 370.738 323.037 377.802 323.037 383.608C323.037 384.259 323.037 385.148 323.037 386.021V389.546H332.415C333.393 389.546 334.311 389.546 334.993 389.502C340.696 389.546 343.052 380.142 348.934 382.482C353.645 386.007 356 390.716 355.037 396.329C354.993 397.143 354.934 397.958 354.904 398.758C354.859 399.557 354.83 400.342 354.83 401.097V404.267C354.83 404.829 354.785 405.525 354.785 406.103C356 414.233 356 421.297 354.8 428.998C354.8 429.62 354.83 430.168 354.83 430.583V431.886H353.245C352.756 431.886 352.163 431.886 351.482 431.886C343.052 428.361 334.815 427.177 327.304 432.567C326.534 432.76 325.778 432.923 325.022 433.056C319.008 434.137 313.185 433.767 306.652 431.886C305.926 431.886 305.259 431.886 304.682 431.886C302.934 431.886 301.867 431.886 301.867 431.886V424.837H297.156V441.305L332.4 439.824C338.341 437.78 344.222 440.135 349.971 440.091C350.919 440.135 351.778 440.135 352.489 440.135H354.815L364.222 429.709V428.821C361.867 421.312 361.867 414.263 364.193 406.843C364.222 406.221 364.222 405.644 364.222 405.081V384.274C364.222 383.622 364.222 382.971 364.222 382.319C364.222 378.972 364.222 376.617 364.222 373.241C364.222 372.678 364.222 372.13 364.222 371.597V358.979ZM352.874 372.056C352.771 372.515 352.726 372.811 352.726 372.811C350.415 372.471 348.311 372.767 346.356 373.359C345.704 373.567 345.067 373.789 344.43 374.055C343.808 374.307 343.185 374.603 342.578 374.9C341.971 375.196 341.378 375.507 340.785 375.803C339.615 376.425 338.474 377.032 337.334 377.565C336.578 377.817 335.822 378.039 335.082 378.232C332.148 378.972 329.497 378.972 327.734 376.617C325.378 373.093 325.378 366.029 327.734 363.674C328.904 361.319 334.8 362.504 338.919 362.504C339.497 362.504 340.089 362.504 340.682 362.504C341.274 362.504 341.852 362.504 342.445 362.504C346.563 362.504 351.274 361.319 354.8 363.674C355.971 364.844 354.8 369.553 352.859 372.041L352.874 372.056Z" fill="#FFA92E"/>
<path d="M210.059 234.625V299.49" stroke="#FFA92E" stroke-miterlimit="10"/>
<path d="M202.667 297.328L210.059 310.123L217.437 297.328H202.667Z" fill="#FFA92E"/>
</g>
<defs>
<clipPath id="clip0_98_830">
<rect width="440" height="505" fill="white"/>
</clipPath>
</defs>
</svg>
