<svg width="440" height="505" viewBox="0 0 440 505" fill="none" xmlns="http://www.w3.org/2000/svg">
<g clip-path="url(#clip0_98_831)">
<path d="M440 0H0V505H440V0Z" fill="#00002E"/>
<path d="M181.185 133.166H246.074" stroke="#FFA92E" stroke-miterlimit="10"/>
<path d="M243.911 140.556L256.711 133.166L243.911 125.791V140.556Z" fill="#FFA92E"/>
<path d="M181.185 358.269H246.074" stroke="#FFA92E" stroke-miterlimit="10"/>
<path d="M243.911 365.659L256.711 358.269L243.911 350.894V365.659Z" fill="#FFA92E"/>
<path d="M111.141 74.743C105.467 72.7141 107.526 60.3186 101.333 64.4505C97.1998 66.5238 99.2591 74.7874 107.541 75.987C109.289 75.4094 111.141 74.743 111.141 74.743Z" fill="#FFA92E"/>
<path d="M109.6 120.238L109.17 89.2415H103.393V142.511C103.393 143.696 103.393 144.88 103.393 146.065C103.393 159.497 103.393 171.893 103.393 185.132C103.393 186.909 103.393 188.583 103.393 190.153V202.889H113.733V189.323C113.733 188.42 113.733 187.487 113.689 186.51C109.6 171.893 109.6 159.497 113.733 145.265C113.733 144.125 113.733 142.985 113.733 141.874V116.106L109.6 120.238Z" fill="#FFA92E"/>
<path d="M325.363 77.8381C321.437 75.2761 320.4 73.4545 321.956 72.951C318.889 69.4856 318.385 67.353 318.726 64.0357C316.741 64.7466 315.6 64.2875 312.059 63.5322C312.148 66.3608 311.467 67.7381 308.771 69.4856C311.467 70.8925 312.163 72.6696 312.296 76.8755C314.919 75.6167 316.993 76.8014 321.037 79.8966C321.496 76.6237 323.348 75.9573 325.378 77.8381H325.363Z" fill="#FFA92E"/>
<path d="M321.792 121.452L321.363 90.4558H315.585V140.023C315.585 140.334 315.585 140.63 315.585 140.941C315.585 144.169 321.778 146.228 315.585 151.011C315.585 151.426 315.585 151.841 315.585 152.255C315.585 159.675 315.585 166.857 315.585 174.114C315.585 174.514 315.585 174.914 315.585 175.328C317.644 179.297 319.718 181.371 315.659 185.103C315.6 185.517 315.585 185.932 315.585 186.347C315.585 188.124 315.585 189.797 315.585 191.367V204.103H325.926V190.538C325.926 189.634 325.926 188.701 325.881 187.724C325.526 186.435 325.185 185.162 324.889 183.903C324.785 183.488 324.696 183.059 324.607 182.644C323.852 181.371 323.852 179.297 323.496 176.498C323.437 176.098 323.392 175.699 323.333 175.284C322.341 167.242 322.77 159.571 324.637 151.411C324.726 150.997 324.829 150.597 324.933 150.182C325.926 148.286 325.926 144.155 325.926 142.081V117.29L321.792 121.422V121.452Z" fill="#FFA92E"/>
<path d="M130.371 306.554H90.3706V313.959C90.3706 321.364 90.3706 330.249 90.3706 337.565C90.3706 338.394 90.3706 339.505 90.3706 340.616V345.059H98.5928C99.6595 345.059 100.948 345.059 102.163 345.059C103.378 345.059 104.548 345.059 105.408 344.999C112.578 345.059 115.541 333.211 122.948 336.173C128.874 340.616 131.837 346.54 130.622 353.618C130.563 354.64 130.504 355.677 130.445 356.684C130.385 357.691 130.356 358.683 130.356 359.631V398.372H102.208V389.487H96.2817V408.739H130.356L142.208 395.603V338.394C142.208 337.565 142.208 336.751 142.208 335.936C142.208 331.73 142.208 328.768 142.208 324.503C142.208 323.807 142.208 323.111 142.208 322.445V306.554H130.356H130.371ZM127.748 323.97C124.845 323.541 122.193 323.911 119.719 324.666C118.889 324.918 118.089 325.214 117.304 325.54C116.519 325.866 115.734 326.221 114.978 326.591C114.222 326.962 113.467 327.347 112.726 327.732C111.245 328.502 109.808 329.287 108.385 329.953C107.422 330.264 106.474 330.56 105.556 330.782C101.852 331.701 98.5188 331.701 96.2965 328.739C93.3336 324.296 93.3336 315.41 96.2965 312.448C97.778 309.486 105.185 310.967 110.371 310.982C111.111 310.982 111.852 310.982 112.593 310.997C113.334 310.997 114.074 310.997 114.815 310.982C120 310.982 125.926 309.486 130.371 312.448C131.852 313.929 130.371 319.853 127.941 322.978C127.808 323.57 127.748 323.94 127.748 323.94V323.97Z" fill="#FFA92E"/>
<path d="M360 312.478H308.148V319.883C308.148 327.287 308.148 336.173 308.148 343.489C308.148 344.318 308.148 345.429 308.148 346.54V350.982H319.941C321.17 350.982 322.326 350.982 323.185 350.923C330.356 350.982 333.319 339.135 340.726 342.097C346.652 346.54 349.615 352.463 348.4 359.542C348.341 360.564 348.282 361.601 348.222 362.608C348.163 363.615 348.133 364.607 348.133 365.555V369.538C348.133 370.249 348.089 371.123 348.074 371.849C349.615 382.082 349.615 390.968 348.104 400.668C348.119 401.453 348.133 402.134 348.133 402.667V404.296H346.148C345.526 404.296 344.77 404.296 343.941 404.296C333.333 399.853 322.963 398.372 313.496 405.155C312.533 405.407 311.585 405.599 310.637 405.777C303.052 407.154 295.719 406.666 287.511 404.296C286.593 404.296 285.763 404.296 285.022 404.296C282.815 404.296 281.482 404.296 281.482 404.296V395.41H275.556V416.144L319.926 414.278C327.408 411.701 334.815 414.663 342.045 414.603C343.245 414.663 344.311 414.663 345.215 414.663H348.148L360 401.527V400.401C357.037 390.953 357.037 382.067 359.956 372.723C359.985 371.938 360 371.212 360 370.501V344.303C360 343.474 360 342.659 360 341.845C360 337.639 360 334.677 360 330.412C360 329.716 360 329.02 360 328.354V312.463V312.478ZM345.719 328.931C345.585 329.524 345.526 329.894 345.526 329.894C342.622 329.464 339.97 329.835 337.496 330.59C336.667 330.842 335.867 331.138 335.082 331.464C334.296 331.789 333.511 332.145 332.756 332.515C332 332.885 331.245 333.27 330.504 333.655C329.022 334.425 327.585 335.21 326.163 335.877C325.2 336.188 324.252 336.484 323.333 336.706C319.63 337.624 316.296 337.624 314.074 334.662C311.111 330.22 311.111 321.334 314.074 318.372C315.556 315.41 322.963 316.891 328.148 316.906C328.889 316.906 329.63 316.906 330.37 316.921C331.111 316.921 331.852 316.921 332.593 316.906C337.778 316.906 343.704 315.41 348.148 318.372C349.63 319.853 348.148 325.777 345.719 328.902V328.931Z" fill="#FFA92E"/>
</g>
<defs>
<clipPath id="clip0_98_831">
<rect width="440" height="505" fill="white"/>
</clipPath>
</defs>
</svg>
